<?xml version="1.0" encoding="utf-8"?>
<!-- Generator: Fusion 360, Shaper Origin Export Add-In, Version 1.7.0  -->
<svg xmlns="http://www.w3.org/2000/svg" xmlns:xlink="http://www.w3.org/1999/xlink" xmlns:shaper="http://www.shapertools.com/namespaces/shaper" shaper:fusionaddin="version:1.7.0" width="13.8564065cm" height="12cm" version="1.1" x="0cm" y="0cm" viewBox="0 0 13.8564065 12" enable-background="new 0 0 13.8564065 12" xml:space="preserve"><path d="M7.4375111,-2.688567 L3.9734095,3.311433 -2.9547937,3.311433 -6.4188953,-2.688567 -2.9547937,-8.688567 3.9734095,-8.688567 7.4375111,-2.688567z" transform="matrix(1,0,0,-1,6.4188953,3.311433)" fill="rgb(0,0,0)" stroke-linecap="round" stroke-linejoin="round" /><path d="M2.9234095,2.1855999 a0.4,0.4 0 1,1 0.8,0 a0.4,0.4 0 1,1 -0.8,0z" transform="matrix(1,0,0,-1,6.4188953,3.311433)" fill="rgb(255,255,255)" stroke="rgb(0,0,0)" stroke-width="0.0010cm" stroke-linecap="round" stroke-linejoin="round" /><path d="M-2.7047937,-7.562734 a0.4,0.4 0 1,1 0.8,0 a0.4,0.4 0 1,1 -0.8,0z" transform="matrix(1,0,0,-1,6.4188953,3.311433)" fill="rgb(255,255,255)" stroke="rgb(0,0,0)" stroke-width="0.0010cm" stroke-linecap="round" stroke-linejoin="round" /><path d="M-1.9118567,-3.311433 L-4.8690242,-1.6041115 A0.3,0.3 240 0,0 -4.9788318,-1.1943039 L-3.5288318,1.3171698 A0.3,0.3 150 0,0 -3.1190242,1.4269774 L-0.1618567,-0.280344 A2.5,2.5 105.572996 1,0 -1.9118567,-3.311433z" transform="matrix(1,0,0,-1,6.4188953,3.311433)" fill="rgb(255,255,255)" stroke="rgb(0,0,0)" stroke-width="0.0010cm" stroke-linecap="round" stroke-linejoin="round" /></svg>