<?xml version="1.0" encoding="utf-8"?>
<!-- Generator: Fusion 360, Shaper Origin Export Add-In, Version 1.7.0  -->
<svg xmlns="http://www.w3.org/2000/svg" xmlns:xlink="http://www.w3.org/1999/xlink" xmlns:shaper="http://www.shapertools.com/namespaces/shaper" shaper:fusionaddin="version:1.7.0" width="13.8564065cm" height="12cm" version="1.1" x="0cm" y="0cm" viewBox="0 0 13.8564065 12" enable-background="new 0 0 13.8564065 12" xml:space="preserve"><path d="M7.8375299,-8.525 L11.3016315,-2.525 7.8375299,3.475 0.9093267,3.475 -2.5547749,-2.525 0.9093267,-8.525 7.8375299,-8.525z" transform="matrix(1,0,0,-1,2.5547749,3.475)" fill="rgb(0,0,0)" stroke-linecap="round" stroke-linejoin="round" /><path d="M1.1293267,2.349167 a0.43,0.43 0 1,1 0.86,0 a0.43,0.43 0 1,1 -0.86,0z" transform="matrix(1,0,0,-1,2.5547749,3.475)" fill="rgb(255,255,255)" stroke="rgb(0,0,0)" stroke-width="0.0010cm" stroke-linecap="round" stroke-linejoin="round" /><path d="M-0.3608439,-2.525 L2.0062922,1.575 6.7405644,1.575 9.1077005,-2.525 6.7405644,-6.625 2.0062922,-6.625 -0.3608439,-2.525z" transform="matrix(1,0,0,-1,2.5547749,3.475)" fill="rgb(255,255,255)" stroke="rgb(0,0,0)" stroke-width="0.0010cm" stroke-linecap="round" stroke-linejoin="round" /><path d="M6.7575299,-7.399167 a0.43,0.43 0 1,1 0.86,0 a0.43,0.43 0 1,1 -0.86,0z" transform="matrix(1,0,0,-1,2.5547749,3.475)" fill="rgb(255,255,255)" stroke="rgb(0,0,0)" stroke-width="0.0010cm" stroke-linecap="round" stroke-linejoin="round" /></svg>