  0
SECTION
  2
HEADER
  9
$ACADVER
  1
AC1032
  9
$ACADMAINTVER
 90
       55
  9
$DWGCODEPAGE
  3
ISO8859-1
  9
$LASTSAVEDBY
  1
Peter
  9
$REQUIREDVERSIONS
160
                 0
  9
$INSBASE
 10
0.0
 20
0.0
 30
0.0
  9
$EXTMIN
 10
1.000000000000000E+20
 20
1.000000000000000E+20
 30
1.000000000000000E+20
  9
$EXTMAX
 10
-1.000000000000000E+20
 20
-1.000000000000000E+20
 30
-1.000000000000000E+20
  9
$LIMMIN
 10
0.0
 20
0.0
  9
$LIMMAX
 10
420.0
 20
297.0
  9
$ORTHOMODE
 70
     0
  9
$REGENMODE
 70
     1
  9
$FILLMODE
 70
     1
  9
$QTEXTMODE
 70
     0
  9
$MIRRTEXT
 70
     1
  9
$LTSCALE
 40
1.0
  9
$ATTMODE
 70
     1
  9
$TEXTSIZE
 40
2.5
  9
$TRACEWID
 40
1.0
  9
$TEXTSTYLE
  7
Standard
  9
$CLAYER
  8
0
  9
$CELTYPE
  6
ByLayer
  9
$CECOLOR
 62
   256
  9
$CELTSCALE
 40
1.0
  9
$DISPSILH
 70
     0
  9
$DIMSCALE
 40
1.0
  9
$DIMASZ
 40
2.5
  9
$DIMEXO
 40
0.625
  9
$DIMDLI
 40
3.75
  9
$DIMRND
 40
0.0
  9
$DIMDLE
 40
0.0
  9
$DIMEXE
 40
1.25
  9
$DIMTP
 40
0.0
  9
$DIMTM
 40
0.0
  9
$DIMTXT
 40
2.5
  9
$DIMCEN
 40
2.5
  9
$DIMTSZ
 40
0.0
  9
$DIMTOL
 70
     0
  9
$DIMLIM
 70
     0
  9
$DIMTIH
 70
     0
  9
$DIMTOH
 70
     0
  9
$DIMSE1
 70
     0
  9
$DIMSE2
 70
     0
  9
$DIMTAD
 70
     1
  9
$DIMZIN
 70
     8
  9
$DIMBLK
  1

  9
$DIMASO
 70
     1
  9
$DIMSHO
 70
     1
  9
$DIMPOST
  1

  9
$DIMAPOST
  1

  9
$DIMALT
 70
     0
  9
$DIMALTD
 70
     3
  9
$DIMALTF
 40
0.03937007874016
  9
$DIMLFAC
 40
1.0
  9
$DIMTOFL
 70
     1
  9
$DIMTVP
 40
0.0
  9
$DIMTIX
 70
     0
  9
$DIMSOXD
 70
     0
  9
$DIMSAH
 70
     0
  9
$DIMBLK1
  1

  9
$DIMBLK2
  1

  9
$DIMSTYLE
  2
ISO-25
  9
$DIMCLRD
 70
     0
  9
$DIMCLRE
 70
     0
  9
$DIMCLRT
 70
     0
  9
$DIMTFAC
 40
1.0
  9
$DIMGAP
 40
0.625
  9
$DIMJUST
 70
     0
  9
$DIMSD1
 70
     0
  9
$DIMSD2
 70
     0
  9
$DIMTOLJ
 70
     0
  9
$DIMTZIN
 70
     8
  9
$DIMALTZ
 70
     0
  9
$DIMALTTZ
 70
     0
  9
$DIMUPT
 70
     0
  9
$DIMDEC
 70
     2
  9
$DIMTDEC
 70
     2
  9
$DIMALTU
 70
     2
  9
$DIMALTTD
 70
     3
  9
$DIMTXSTY
  7
Standard
  9
$DIMAUNIT
 70
     0
  9
$DIMADEC
 70
     0
  9
$DIMALTRND
 40
0.0
  9
$DIMAZIN
 70
     0
  9
$DIMDSEP
 70
    44
  9
$DIMATFIT
 70
     3
  9
$DIMFRAC
 70
     0
  9
$DIMLDRBLK
  1

  9
$DIMLUNIT
 70
     2
  9
$DIMLWD
 70
    -2
  9
$DIMLWE
 70
    -2
  9
$DIMTMOVE
 70
     0
  9
$DIMFXL
 40
1.0
  9
$DIMFXLON
 70
     0
  9
$DIMJOGANG
 40
0.7853981633974483
  9
$DIMTFILL
 70
     0
  9
$DIMTFILLCLR
 70
     0
  9
$DIMARCSYM
 70
     0
  9
$DIMLTYPE
  6

  9
$DIMLTEX1
  6

  9
$DIMLTEX2
  6

  9
$DIMTXTDIRECTION
 70
     0
  9
$LUNITS
 70
     2
  9
$LUPREC
 70
     4
  9
$SKETCHINC
 40
1.0
  9
$FILLETRAD
 40
0.0
  9
$AUNITS
 70
     0
  9
$AUPREC
 70
     0
  9
$MENU
  1
.
  9
$ELEVATION
 40
0.0
  9
$PELEVATION
 40
0.0
  9
$THICKNESS
 40
0.0
  9
$LIMCHECK
 70
     0
  9
$CHAMFERA
 40
0.0
  9
$CHAMFERB
 40
0.0
  9
$CHAMFERC
 40
0.0
  9
$CHAMFERD
 40
0.0
  9
$SKPOLY
 70
     0
  9
$TDCREATE
 40
2460390.4902389
  9
$TDUCREATE
 40
2460390.448572234
  9
$TDUPDATE
 40
2460390.490239121
  9
$TDUUPDATE
 40
2460390.448572454
  9
$TDINDWG
 40
0.0000000116
  9
$TDUSRTIMER
 40
0.0000000116
  9
$USRTIMER
 70
     1
  9
$ANGBASE
 50
0.0
  9
$ANGDIR
 70
     0
  9
$PDMODE
 70
     0
  9
$PDSIZE
 40
0.0
  9
$PLINEWID
 40
0.0
  9
$SPLFRAME
 70
     0
  9
$SPLINETYPE
 70
     6
  9
$SPLINESEGS
 70
     8
  9
$HANDSEED
  5
C1
  9
$SURFTAB1
 70
     6
  9
$SURFTAB2
 70
     6
  9
$SURFTYPE
 70
     6
  9
$SURFU
 70
     6
  9
$SURFV
 70
     6
  9
$UCSBASE
  2

  9
$UCSNAME
  2

  9
$UCSORG
 10
0.0
 20
0.0
 30
0.0
  9
$UCSXDIR
 10
1.0
 20
0.0
 30
0.0
  9
$UCSYDIR
 10
0.0
 20
1.0
 30
0.0
  9
$UCSORTHOREF
  2

  9
$UCSORTHOVIEW
 70
     0
  9
$UCSORGTOP
 10
0.0
 20
0.0
 30
0.0
  9
$UCSORGBOTTOM
 10
0.0
 20
0.0
 30
0.0
  9
$UCSORGLEFT
 10
0.0
 20
0.0
 30
0.0
  9
$UCSORGRIGHT
 10
0.0
 20
0.0
 30
0.0
  9
$UCSORGFRONT
 10
0.0
 20
0.0
 30
0.0
  9
$UCSORGBACK
 10
0.0
 20
0.0
 30
0.0
  9
$PUCSBASE
  2

  9
$PUCSNAME
  2

  9
$PUCSORG
 10
0.0
 20
0.0
 30
0.0
  9
$PUCSXDIR
 10
1.0
 20
0.0
 30
0.0
  9
$PUCSYDIR
 10
0.0
 20
1.0
 30
0.0
  9
$PUCSORTHOREF
  2

  9
$PUCSORTHOVIEW
 70
     0
  9
$PUCSORGTOP
 10
0.0
 20
0.0
 30
0.0
  9
$PUCSORGBOTTOM
 10
0.0
 20
0.0
 30
0.0
  9
$PUCSORGLEFT
 10
0.0
 20
0.0
 30
0.0
  9
$PUCSORGRIGHT
 10
0.0
 20
0.0
 30
0.0
  9
$PUCSORGFRONT
 10
0.0
 20
0.0
 30
0.0
  9
$PUCSORGBACK
 10
0.0
 20
0.0
 30
0.0
  9
$USERI1
 70
     0
  9
$USERI2
 70
     0
  9
$USERI3
 70
     0
  9
$USERI4
 70
     0
  9
$USERI5
 70
     0
  9
$USERR1
 40
0.0
  9
$USERR2
 40
0.0
  9
$USERR3
 40
0.0
  9
$USERR4
 40
0.0
  9
$USERR5
 40
0.0
  9
$WORLDVIEW
 70
     1
  9
$SHADEDGE
 70
     3
  9
$SHADEDIF
 70
    70
  9
$TILEMODE
 70
     1
  9
$MAXACTVP
 70
    64
  9
$PINSBASE
 10
0.0
 20
0.0
 30
0.0
  9
$PLIMCHECK
 70
     0
  9
$PEXTMIN
 10
500.0000000000001
 20
750.0
 30
0.0
  9
$PEXTMAX
 10
0.0
 20
0.0
 30
0.0
  9
$PLIMMIN
 10
-20.0
 20
-7.5
  9
$PLIMMAX
 10
277.0
 20
202.5
  9
$UNITMODE
 70
     0
  9
$VISRETAIN
 70
     1
  9
$PLINEGEN
 70
     0
  9
$PSLTSCALE
 70
     1
  9
$TREEDEPTH
 70
  3020
  9
$CMLSTYLE
  2
Standard
  9
$CMLJUST
 70
     0
  9
$CMLSCALE
 40
20.0
  9
$PROXYGRAPHICS
 70
     1
  9
$MEASUREMENT
 70
     1
  9
$CELWEIGHT
370
    -1
  9
$ENDCAPS
280
     0
  9
$JOINSTYLE
280
     0
  9
$LWDISPLAY
290
     0
  9
$INSUNITS
 70
     4
  9
$HYPERLINKBASE
  1

  9
$STYLESHEET
  1

  9
$XEDIT
290
     1
  9
$CEPSNTYPE
380
     0
  9
$PSTYLEMODE
290
     1
  9
$FINGERPRINTGUID
  2
{7a8ebb72-cdfb-4858-9925-a4511441e137}
  9
$VERSIONGUID
  2
{FAEB1C32-E019-11D5-929B-00C0DF256EC4}
  9
$EXTNAMES
290
     1
  9
$PSVPSCALE
 40
0.0
  9
$OLESTARTUP
290
     0
  9
$SORTENTS
280
   127
  9
$INDEXCTL
280
     0
  9
$HIDETEXT
280
     1
  9
$XCLIPFRAME
280
     2
  9
$HALOGAP
280
     0
  9
$OBSCOLOR
 70
   257
  9
$OBSLTYPE
280
     0
  9
$INTERSECTIONDISPLAY
280
     0
  9
$INTERSECTIONCOLOR
 70
   257
  9
$DIMASSOC
280
     2
  9
$PROJECTNAME
  1

  9
$CAMERADISPLAY
290
     0
  9
$LENSLENGTH
 40
50.0
  9
$CAMERAHEIGHT
 40
0.0
  9
$STEPSPERSEC
 40
2.0
  9
$STEPSIZE
 40
6.0
  9
$3DDWFPREC
 40
2.0
  9
$PSOLWIDTH
 40
5.0
  9
$PSOLHEIGHT
 40
80.0
  9
$LOFTANG1
 40
1.570796326794897
  9
$LOFTANG2
 40
1.570796326794897
  9
$LOFTMAG1
 40
0.0
  9
$LOFTMAG2
 40
0.0
  9
$LOFTPARAM
 70
     7
  9
$LOFTNORMALS
280
     1
  9
$LATITUDE
 40
37.795
  9
$LONGITUDE
 40
-122.394
  9
$NORTHDIRECTION
 40
0.0
  9
$TIMEZONE
 70
 -8000
  9
$LIGHTGLYPHDISPLAY
280
     1
  9
$TILEMODELIGHTSYNCH
280
     1
  9
$CMATERIAL
347
44
  9
$SOLIDHIST
280
     0
  9
$SHOWHIST
280
     1
  9
$DWFFRAME
280
     2
  9
$DGNFRAME
280
     2
  9
$REALWORLDSCALE
290
     1
  9
$INTERFERECOLOR
 62
   256
  9
$CSHADOW
280
     0
  9
$SHADOWPLANELOCATION
 40
0.0
  0
ENDSEC
  0
SECTION
  2
CLASSES
  0
CLASS
  1
ACDBDICTIONARYWDFLT
  2
AcDbDictionaryWithDefault
  3
ObjectDBX Classes
 90
        0
 91
        3
280
     0
281
     0
  0
CLASS
  1
VISUALSTYLE
  2
AcDbVisualStyle
  3
ObjectDBX Classes
 90
     4095
 91
        3
280
     0
281
     0
  0
CLASS
  1
MATERIAL
  2
AcDbMaterial
  3
ObjectDBX Classes
 90
     1153
 91
        3
280
     0
281
     0
  0
CLASS
  1
SCALE
  2
AcDbScale
  3
ObjectDBX Classes
 90
     1153
 91
        3
280
     0
281
     0
  0
CLASS
  1
TABLESTYLE
  2
AcDbTableStyle
  3
ObjectDBX Classes
 90
     4095
 91
        3
280
     0
281
     0
  0
CLASS
  1
MLEADERSTYLE
  2
AcDbMLeaderStyle
  3
ACDB_MLEADERSTYLE_CLASS
 90
     4095
 91
        3
280
     0
281
     0
  0
CLASS
  1
SUN
  2
AcDbSun
  3
SCENEOE
 90
     1153
 91
        3
280
     0
281
     0
  0
CLASS
  1
DICTIONARYVAR
  2
AcDbDictionaryVar
  3
ObjectDBX Classes
 90
        0
 91
        3
280
     0
281
     0
  0
CLASS
  1
CELLSTYLEMAP
  2
AcDbCellStyleMap
  3
ObjectDBX Classes
 90
     1152
 91
        3
280
     0
281
     0
  0
ENDSEC
  0
SECTION
  2
TABLES
  0
TABLE
  2
VPORT
  5
8
330
0
100
AcDbSymbolTable
 70
     1
  0
VPORT
  5
29
330
8
100
AcDbSymbolTableRecord
100
AcDbViewportTableRecord
  2
*Active
 70
     0
 10
0.0
 20
0.0
 11
1.0
 21
1.0
 12
250.0
 22
375.0
 13
0.0
 23
0.0
 14
10.0
 24
10.0
 15
10.0
 25
10.0
 16
0.0
 26
0.0
 36
1.0
 17
0.0
 27
0.0
 37
0.0
 40
750.0
 41
1.972972972850329
 42
50.0
 43
0.0
 44
0.0
 50
0.0
 51
0.0
 71
     0
 72
   100
 73
     1
 74
     3
 75
     0
 76
     0
 77
     0
 78
     0
281
     0
 65
     1
110
0.0
120
0.0
130
0.0
111
1.0
121
0.0
131
0.0
112
0.0
122
1.0
132
0.0
 79
     0
146
0.0
348
2F
 60
     3
 61
     5
292
     1
282
     1
141
0.0
142
0.0
 63
   250
361
5D
  0
ENDTAB
  0
TABLE
  2
LTYPE
  5
5
330
0
100
AcDbSymbolTable
 70
     1
  0
LTYPE
  5
14
330
5
100
AcDbSymbolTableRecord
100
AcDbLinetypeTableRecord
  2
ByBlock
 70
     0
  3

 72
    65
 73
     0
 40
0.0
  0
LTYPE
  5
15
330
5
100
AcDbSymbolTableRecord
100
AcDbLinetypeTableRecord
  2
ByLayer
 70
     0
  3

 72
    65
 73
     0
 40
0.0
  0
LTYPE
  5
16
330
5
100
AcDbSymbolTableRecord
100
AcDbLinetypeTableRecord
  2
Continuous
 70
     0
  3
Solid line
 72
    65
 73
     0
 40
0.0
  0
ENDTAB
  0
TABLE
  2
LAYER
  5
2
330
0
100
AcDbSymbolTable
 70
     1
  0
LAYER
  5
10
330
2
100
AcDbSymbolTableRecord
100
AcDbLayerTableRecord
  2
0
 70
     0
 62
     7
  6
Continuous
370
    -3
390
F
347
46
348
0
  0
ENDTAB
  0
TABLE
  2
STYLE
  5
3
330
0
100
AcDbSymbolTable
 70
     1
  0
STYLE
  5
11
330
3
100
AcDbSymbolTableRecord
100
AcDbTextStyleTableRecord
  2
Standard
 70
     0
 40
0.0
 41
1.0
 50
0.0
 71
     0
 42
2.5
  3
txt
  4

  0
ENDTAB
  0
TABLE
  2
VIEW
  5
6
330
0
100
AcDbSymbolTable
 70
     0
  0
ENDTAB
  0
TABLE
  2
UCS
  5
7
330
0
100
AcDbSymbolTable
 70
     0
  0
ENDTAB
  0
TABLE
  2
APPID
  5
9
330
0
100
AcDbSymbolTable
 70
     1
  0
APPID
  5
12
330
9
100
AcDbSymbolTableRecord
100
AcDbRegAppTableRecord
  2
ACAD
 70
     0
  0
ENDTAB
  0
TABLE
  2
DIMSTYLE
  5
A
330
0
100
AcDbSymbolTable
 70
     1
100
AcDbDimStyleTable
  0
DIMSTYLE
105
27
330
A
100
AcDbSymbolTableRecord
100
AcDbDimStyleTableRecord
  2
ISO-25
 70
     0
 41
2.5
 42
0.625
 43
3.75
 44
1.25
 73
     0
 74
     0
 77
     1
 78
     8
140
2.5
141
2.5
143
0.03937007874016
147
0.625
171
     3
172
     1
178
     0
271
     2
272
     2
274
     3
278
    44
283
     0
284
     8
340
11
  0
ENDTAB
  0
TABLE
  2
BLOCK_RECORD
  5
1
330
0
100
AcDbSymbolTable
 70
     0
  0
BLOCK_RECORD
  5
1F
330
1
100
AcDbSymbolTableRecord
100
AcDbBlockTableRecord
  2
*Model_Space
340
22
 70
     0
280
     1
281
     0
  0
BLOCK_RECORD
  5
AE
330
1
100
AcDbSymbolTableRecord
100
AcDbBlockTableRecord
  2
*Paper_Space
340
AF
 70
     0
280
     1
281
     0
  0
ENDTAB
  0
ENDSEC
  0
SECTION
  2
BLOCKS
  0
BLOCK
  5
20
330
1F
100
AcDbEntity
  8
0
100
AcDbBlockBegin
  2
*Model_Space
 70
     0
 10
0.0
 20
0.0
 30
0.0
  3
*Model_Space
  1

  0
ENDBLK
  5
21
330
1F
100
AcDbEntity
  8
0
100
AcDbBlockEnd
  0
BLOCK
  5
B0
330
AE
100
AcDbEntity
 67
     1
  8
0
100
AcDbBlockBegin
  2
*Paper_Space
 70
     0
 10
0.0
 20
0.0
 30
0.0
  3
*Paper_Space
  1

  0
ENDBLK
  5
B1
330
AE
100
AcDbEntity
 67
     1
  8
0
100
AcDbBlockEnd
  0
ENDSEC
  0
SECTION
  2
ENTITIES
  0
LWPOLYLINE
  5
5E
330
1F
100
AcDbEntity
  8
0
  6
Continuous
 62
    18
420
        0
370
    25
100
AcDbPolyline
 90
        7
 70
     1
 43
0.0
 10
121.0622052838092
 20
127.0657032302757
 10
51.78017298105407
 20
127.0657032302757
 10
17.13915682967646
 20
67.06570323027574
 10
51.780172981054
 20
7.065703230275744
 10
121.0622052838091
 20
7.065703230275517
 10
155.7032214351866
 20
67.06570323027574
 10
121.0622052838092
 20
127.0657032302757
  0
LWPOLYLINE
  5
5F
330
1F
100
AcDbEntity
  8
0
  6
Continuous
 62
    18
420
        0
370
    25
100
AcDbPolyline
 90
        7
 70
     1
 43
0.0
 10
62.7498280870537
 20
26.06570321537458
 10
110.0925501778094
 20
26.06570321537447
 10
133.7639112231873
 20
67.06570323027563
 10
110.0925501778095
 20
108.0657032451769
 10
62.74982808705377
 20
108.0657032451769
 10
39.07846704167588
 20
67.06570323027574
 10
62.7498280870537
 20
26.06570321537458
  0
SPLINE
  5
60
330
1F
100
AcDbEntity
  8
0
  6
Continuous
 62
    18
420
        0
370
    25
100
AcDbSpline
210
0.0
220
0.0
230
1.0
 70
    11
 71
     3
 72
    17
 73
    13
 74
     0
 42
0.000000001
 43
0.0
 40
0.0
 40
0.0
 40
0.0
 40
0.0
 40
1.0
 40
1.0
 40
1.0
 40
2.0
 40
2.0
 40
2.0
 40
3.0
 40
3.0
 40
3.0
 40
4.0
 40
4.0
 40
4.0
 40
4.0
 10
142.7032214351867
 20
62.76570323027568
 30
0.0
 10
145.0764560405109
 20
62.76570323027568
 30
0.0
 10
147.0032214351867
 20
64.69246862495152
 30
0.0
 10
147.0032214351867
 20
67.06570323027574
 30
0.0
 10
147.0032214351867
 20
69.43893783559997
 30
0.0
 10
145.0764560405109
 20
71.36570323027581
 30
0.0
 10
142.7032214351867
 20
71.36570323027581
 30
0.0
 10
140.3299868298625
 20
71.36570323027581
 30
0.0
 10
138.4032214351867
 20
69.43893783559997
 30
0.0
 10
138.4032214351867
 20
67.06570323027574
 30
0.0
 10
138.4032214351867
 20
64.69246862495152
 30
0.0
 10
140.3299868298625
 20
62.76570323027568
 30
0.0
 10
142.7032214351867
 20
62.76570323027568
 30
0.0
  0
SPLINE
  5
61
330
1F
100
AcDbEntity
  8
0
  6
Continuous
 62
    18
420
        0
370
    25
100
AcDbSpline
210
0.0
220
0.0
230
1.0
 70
    11
 71
     3
 72
    17
 73
    13
 74
     0
 42
0.000000001
 43
0.0
 40
0.0
 40
0.0
 40
0.0
 40
0.0
 40
1.0
 40
1.0
 40
1.0
 40
2.0
 40
2.0
 40
2.0
 40
3.0
 40
3.0
 40
3.0
 40
4.0
 40
4.0
 40
4.0
 40
4.0
 10
30.13915682967646
 20
62.76570323027568
 30
0.0
 10
32.51239143500067
 20
62.76570323027568
 30
0.0
 10
34.43915682967646
 20
64.69246862495152
 30
0.0
 10
34.43915682967646
 20
67.06570323027574
 30
0.0
 10
34.43915682967646
 20
69.43893783559997
 30
0.0
 10
32.51239143500067
 20
71.36570323027581
 30
0.0
 10
30.13915682967646
 20
71.36570323027581
 30
0.0
 10
27.76592222435226
 20
71.36570323027581
 30
0.0
 10
25.83915682967646
 20
69.43893783559997
 30
0.0
 10
25.83915682967646
 20
67.06570323027574
 30
0.0
 10
25.83915682967646
 20
64.69246862495152
 30
0.0
 10
27.76592222435226
 20
62.76570323027568
 30
0.0
 10
30.13915682967646
 20
62.76570323027568
 30
0.0
  0
LWPOLYLINE
  5
62
330
1F
100
AcDbEntity
  8
0
  6
Continuous
 62
    18
420
        0
370
    25
100
AcDbPolyline
 90
        7
 70
     1
 43
0.0
 10
339.1672864405672
 20
261.1971096908271
 10
269.8852541378121
 20
261.1971096908271
 10
235.2442379864345
 20
201.197109690827
 10
269.885254137812
 20
141.1971096908271
 10
339.1672864405671
 20
141.197109690827
 10
373.8083025919447
 20
201.197109690827
 10
339.1672864405672
 20
261.1971096908271
  0
LWPOLYLINE
  5
63
330
1F
100
AcDbEntity
  8
0
  6
Continuous
 62
    18
420
        0
370
    25
100
AcDbPolyline
 90
        7
 70
     1
 43
0.0
 10
280.8549092438117
 20
160.1971096759258
 10
328.1976313345674
 20
160.1971096759258
 10
351.8689923799453
 20
201.197109690827
 10
328.1976313345675
 20
242.1971097057282
 10
280.8549092438117
 20
242.1971097057282
 10
257.1835481984339
 20
201.1971096908271
 10
280.8549092438117
 20
160.1971096759258
  0
SPLINE
  5
64
330
1F
100
AcDbEntity
  8
0
  6
Continuous
 62
    18
420
        0
370
    25
100
AcDbSpline
210
0.0
220
0.0
230
1.0
 70
    11
 71
     3
 72
    17
 73
    13
 74
     0
 42
0.000000001
 43
0.0
 40
0.0
 40
0.0
 40
0.0
 40
0.0
 40
1.0
 40
1.0
 40
1.0
 40
2.0
 40
2.0
 40
2.0
 40
3.0
 40
3.0
 40
3.0
 40
4.0
 40
4.0
 40
4.0
 40
4.0
 10
360.8083025919447
 20
196.8971096908271
 30
0.0
 10
363.1815371972688
 20
196.8971096908271
 30
0.0
 10
365.1083025919447
 20
198.8238750855029
 30
0.0
 10
365.1083025919447
 20
201.197109690827
 30
0.0
 10
365.1083025919447
 20
203.5703442961512
 30
0.0
 10
363.1815371972688
 20
205.4971096908271
 30
0.0
 10
360.8083025919447
 20
205.4971096908271
 30
0.0
 10
358.4350679866205
 20
205.4971096908271
 30
0.0
 10
356.5083025919446
 20
203.5703442961512
 30
0.0
 10
356.5083025919446
 20
201.197109690827
 30
0.0
 10
356.5083025919446
 20
198.8238750855029
 30
0.0
 10
358.4350679866205
 20
196.8971096908271
 30
0.0
 10
360.8083025919447
 20
196.8971096908271
 30
0.0
  0
SPLINE
  5
65
330
1F
100
AcDbEntity
  8
0
  6
Continuous
 62
    18
420
        0
370
    25
100
AcDbSpline
210
0.0
220
0.0
230
1.0
 70
    11
 71
     3
 72
    17
 73
    13
 74
     0
 42
0.000000001
 43
0.0
 40
0.0
 40
0.0
 40
0.0
 40
0.0
 40
1.0
 40
1.0
 40
1.0
 40
2.0
 40
2.0
 40
2.0
 40
3.0
 40
3.0
 40
3.0
 40
4.0
 40
4.0
 40
4.0
 40
4.0
 10
248.2442379864345
 20
196.8971096908271
 30
0.0
 10
250.6174725917587
 20
196.8971096908271
 30
0.0
 10
252.5442379864344
 20
198.8238750855029
 30
0.0
 10
252.5442379864344
 20
201.197109690827
 30
0.0
 10
252.5442379864344
 20
203.5703442961512
 30
0.0
 10
250.6174725917587
 20
205.4971096908271
 30
0.0
 10
248.2442379864345
 20
205.4971096908271
 30
0.0
 10
245.8710033811103
 20
205.4971096908271
 30
0.0
 10
243.9442379864344
 20
203.5703442961512
 30
0.0
 10
243.9442379864344
 20
201.197109690827
 30
0.0
 10
243.9442379864344
 20
198.8238750855029
 30
0.0
 10
245.8710033811103
 20
196.8971096908271
 30
0.0
 10
248.2442379864345
 20
196.8971096908271
 30
0.0
  0
LWPOLYLINE
  5
66
330
1F
100
AcDbEntity
  8
0
  6
Continuous
 62
    18
420
        0
370
    25
100
AcDbPolyline
 90
        7
 70
     1
 43
0.0
 10
121.0622052838092
 20
395.3285161513784
 10
51.78017298105407
 20
395.3285161513784
 10
17.13915682967646
 20
335.3285161513784
 10
51.780172981054
 20
275.3285161513784
 10
121.0622052838091
 20
275.3285161513783
 10
155.7032214351866
 20
335.3285161513784
 10
121.0622052838092
 20
395.3285161513784
  0
LWPOLYLINE
  5
67
330
1F
100
AcDbEntity
  8
0
  6
Continuous
 62
    18
420
        0
370
    25
100
AcDbPolyline
 90
        7
 70
     1
 43
0.0
 10
62.7498280870537
 20
294.3285161364772
 10
110.0925501778094
 20
294.3285161364772
 10
133.7639112231873
 20
335.3285161513783
 10
110.0925501778095
 20
376.3285161662796
 10
62.74982808705377
 20
376.3285161662796
 10
39.07846704167588
 20
335.3285161513785
 10
62.7498280870537
 20
294.3285161364772
  0
SPLINE
  5
68
330
1F
100
AcDbEntity
  8
0
  6
Continuous
 62
    18
420
        0
370
    25
100
AcDbSpline
210
0.0
220
0.0
230
1.0
 70
    11
 71
     3
 72
    17
 73
    13
 74
     0
 42
0.000000001
 43
0.0
 40
0.0
 40
0.0
 40
0.0
 40
0.0
 40
1.0
 40
1.0
 40
1.0
 40
2.0
 40
2.0
 40
2.0
 40
3.0
 40
3.0
 40
3.0
 40
4.0
 40
4.0
 40
4.0
 40
4.0
 10
142.7032214351867
 20
331.0285161513784
 30
0.0
 10
145.0764560405109
 20
331.0285161513784
 30
0.0
 10
147.0032214351867
 20
332.9552815460543
 30
0.0
 10
147.0032214351867
 20
335.3285161513784
 30
0.0
 10
147.0032214351867
 20
337.7017507567026
 30
0.0
 10
145.0764560405109
 20
339.6285161513784
 30
0.0
 10
142.7032214351867
 20
339.6285161513784
 30
0.0
 10
140.3299868298625
 20
339.6285161513784
 30
0.0
 10
138.4032214351867
 20
337.7017507567026
 30
0.0
 10
138.4032214351867
 20
335.3285161513784
 30
0.0
 10
138.4032214351867
 20
332.9552815460543
 30
0.0
 10
140.3299868298625
 20
331.0285161513784
 30
0.0
 10
142.7032214351867
 20
331.0285161513784
 30
0.0
  0
SPLINE
  5
69
330
1F
100
AcDbEntity
  8
0
  6
Continuous
 62
    18
420
        0
370
    25
100
AcDbSpline
210
0.0
220
0.0
230
1.0
 70
    11
 71
     3
 72
    17
 73
    13
 74
     0
 42
0.000000001
 43
0.0
 40
0.0
 40
0.0
 40
0.0
 40
0.0
 40
1.0
 40
1.0
 40
1.0
 40
2.0
 40
2.0
 40
2.0
 40
3.0
 40
3.0
 40
3.0
 40
4.0
 40
4.0
 40
4.0
 40
4.0
 10
30.13915682967646
 20
331.0285161513784
 30
0.0
 10
32.51239143500067
 20
331.0285161513784
 30
0.0
 10
34.43915682967646
 20
332.9552815460543
 30
0.0
 10
34.43915682967646
 20
335.3285161513784
 30
0.0
 10
34.43915682967646
 20
337.7017507567026
 30
0.0
 10
32.51239143500067
 20
339.6285161513784
 30
0.0
 10
30.13915682967646
 20
339.6285161513784
 30
0.0
 10
27.76592222435226
 20
339.6285161513784
 30
0.0
 10
25.83915682967646
 20
337.7017507567026
 30
0.0
 10
25.83915682967646
 20
335.3285161513784
 30
0.0
 10
25.83915682967646
 20
332.9552815460543
 30
0.0
 10
27.76592222435226
 20
331.0285161513784
 30
0.0
 10
30.13915682967646
 20
331.0285161513784
 30
0.0
  0
LWPOLYLINE
  5
6A
330
1F
100
AcDbEntity
  8
0
  6
Continuous
 62
    18
420
        0
370
    25
100
AcDbPolyline
 90
        7
 70
     1
 43
0.0
 10
339.1672864405671
 20
395.3285161513781
 10
269.885254137812
 20
395.3285161513781
 10
235.2442379864344
 20
335.3285161513781
 10
269.8852541378119
 20
275.3285161513781
 10
339.167286440567
 20
275.328516151378
 10
373.8083025919446
 20
335.3285161513781
 10
339.1672864405671
 20
395.3285161513781
  0
LWPOLYLINE
  5
6B
330
1F
100
AcDbEntity
  8
0
  6
Continuous
 62
    18
420
        0
370
    25
100
AcDbPolyline
 90
        7
 70
     1
 43
0.0
 10
280.8549092438116
 20
294.3285161364769
 10
328.1976313345673
 20
294.3285161364769
 10
351.8689923799452
 20
335.328516151378
 10
328.1976313345674
 20
376.3285161662793
 10
280.8549092438117
 20
376.3285161662793
 10
257.1835481984338
 20
335.3285161513782
 10
280.8549092438116
 20
294.3285161364769
  0
SPLINE
  5
6C
330
1F
100
AcDbEntity
  8
0
  6
Continuous
 62
    18
420
        0
370
    25
100
AcDbSpline
210
0.0
220
0.0
230
1.0
 70
    11
 71
     3
 72
    17
 73
    13
 74
     0
 42
0.000000001
 43
0.0
 40
0.0
 40
0.0
 40
0.0
 40
0.0
 40
1.0
 40
1.0
 40
1.0
 40
2.0
 40
2.0
 40
2.0
 40
3.0
 40
3.0
 40
3.0
 40
4.0
 40
4.0
 40
4.0
 40
4.0
 10
360.8083025919445
 20
331.0285161513781
 30
0.0
 10
363.1815371972688
 20
331.0285161513781
 30
0.0
 10
365.1083025919446
 20
332.955281546054
 30
0.0
 10
365.1083025919446
 20
335.3285161513781
 30
0.0
 10
365.1083025919446
 20
337.7017507567023
 30
0.0
 10
363.1815371972688
 20
339.6285161513782
 30
0.0
 10
360.8083025919445
 20
339.6285161513782
 30
0.0
 10
358.4350679866204
 20
339.6285161513782
 30
0.0
 10
356.5083025919445
 20
337.7017507567023
 30
0.0
 10
356.5083025919445
 20
335.3285161513781
 30
0.0
 10
356.5083025919445
 20
332.955281546054
 30
0.0
 10
358.4350679866204
 20
331.0285161513781
 30
0.0
 10
360.8083025919445
 20
331.0285161513781
 30
0.0
  0
SPLINE
  5
6D
330
1F
100
AcDbEntity
  8
0
  6
Continuous
 62
    18
420
        0
370
    25
100
AcDbSpline
210
0.0
220
0.0
230
1.0
 70
    11
 71
     3
 72
    17
 73
    13
 74
     0
 42
0.000000001
 43
0.0
 40
0.0
 40
0.0
 40
0.0
 40
0.0
 40
1.0
 40
1.0
 40
1.0
 40
2.0
 40
2.0
 40
2.0
 40
3.0
 40
3.0
 40
3.0
 40
4.0
 40
4.0
 40
4.0
 40
4.0
 10
248.2442379864344
 20
331.0285161513781
 30
0.0
 10
250.6174725917586
 20
331.0285161513781
 30
0.0
 10
252.5442379864344
 20
332.955281546054
 30
0.0
 10
252.5442379864344
 20
335.3285161513781
 30
0.0
 10
252.5442379864344
 20
337.7017507567023
 30
0.0
 10
250.6174725917586
 20
339.6285161513782
 30
0.0
 10
248.2442379864344
 20
339.6285161513782
 30
0.0
 10
245.8710033811102
 20
339.6285161513782
 30
0.0
 10
243.9442379864344
 20
337.7017507567023
 30
0.0
 10
243.9442379864344
 20
335.3285161513781
 30
0.0
 10
243.9442379864344
 20
332.955281546054
 30
0.0
 10
245.8710033811102
 20
331.0285161513781
 30
0.0
 10
248.2442379864344
 20
331.0285161513781
 30
0.0
  0
LWPOLYLINE
  5
6E
330
1F
100
AcDbEntity
  8
0
  6
Continuous
 62
    18
420
        0
370
    25
100
AcDbPolyline
 90
        7
 70
     1
 43
0.0
 10
121.0622052838091
 20
529.4599226119294
 10
51.78017298105399
 20
529.4599226119294
 10
17.13915682967638
 20
469.4599226119295
 10
51.78017298105393
 20
409.4599226119295
 10
121.062205283809
 20
409.4599226119294
 10
155.7032214351866
 20
469.4599226119295
 10
121.0622052838091
 20
529.4599226119294
  0
LWPOLYLINE
  5
6F
330
1F
100
AcDbEntity
  8
0
  6
Continuous
 62
    18
420
        0
370
    25
100
AcDbPolyline
 90
        7
 70
     1
 43
0.0
 10
62.74982808705362
 20
428.4599225970283
 10
110.0925501778093
 20
428.4599225970283
 10
133.7639112231872
 20
469.4599226119294
 10
110.0925501778094
 20
510.4599226268306
 10
62.74982808705369
 20
510.4599226268307
 10
39.0784670416758
 20
469.4599226119295
 10
62.74982808705362
 20
428.4599225970283
  0
SPLINE
  5
70
330
1F
100
AcDbEntity
  8
0
  6
Continuous
 62
    18
420
        0
370
    25
100
AcDbSpline
210
0.0
220
0.0
230
1.0
 70
    11
 71
     3
 72
    17
 73
    13
 74
     0
 42
0.000000001
 43
0.0
 40
0.0
 40
0.0
 40
0.0
 40
0.0
 40
1.0
 40
1.0
 40
1.0
 40
2.0
 40
2.0
 40
2.0
 40
3.0
 40
3.0
 40
3.0
 40
4.0
 40
4.0
 40
4.0
 40
4.0
 10
142.7032214351866
 20
465.1599226119295
 30
0.0
 10
145.0764560405108
 20
465.1599226119295
 30
0.0
 10
147.0032214351866
 20
467.0866880066052
 30
0.0
 10
147.0032214351866
 20
469.4599226119295
 30
0.0
 10
147.0032214351866
 20
471.8331572172537
 30
0.0
 10
145.0764560405108
 20
473.7599226119295
 30
0.0
 10
142.7032214351866
 20
473.7599226119295
 30
0.0
 10
140.3299868298624
 20
473.7599226119295
 30
0.0
 10
138.4032214351866
 20
471.8331572172537
 30
0.0
 10
138.4032214351866
 20
469.4599226119295
 30
0.0
 10
138.4032214351866
 20
467.0866880066052
 30
0.0
 10
140.3299868298624
 20
465.1599226119295
 30
0.0
 10
142.7032214351866
 20
465.1599226119295
 30
0.0
  0
SPLINE
  5
71
330
1F
100
AcDbEntity
  8
0
  6
Continuous
 62
    18
420
        0
370
    25
100
AcDbSpline
210
0.0
220
0.0
230
1.0
 70
    11
 71
     3
 72
    17
 73
    13
 74
     0
 42
0.000000001
 43
0.0
 40
0.0
 40
0.0
 40
0.0
 40
0.0
 40
1.0
 40
1.0
 40
1.0
 40
2.0
 40
2.0
 40
2.0
 40
3.0
 40
3.0
 40
3.0
 40
4.0
 40
4.0
 40
4.0
 40
4.0
 10
30.13915682967638
 20
465.1599226119295
 30
0.0
 10
32.51239143500059
 20
465.1599226119295
 30
0.0
 10
34.43915682967639
 20
467.0866880066052
 30
0.0
 10
34.43915682967639
 20
469.4599226119295
 30
0.0
 10
34.43915682967639
 20
471.8331572172537
 30
0.0
 10
32.51239143500059
 20
473.7599226119295
 30
0.0
 10
30.13915682967638
 20
473.7599226119295
 30
0.0
 10
27.76592222435218
 20
473.7599226119295
 30
0.0
 10
25.83915682967638
 20
471.8331572172537
 30
0.0
 10
25.83915682967638
 20
469.4599226119295
 30
0.0
 10
25.83915682967638
 20
467.0866880066052
 30
0.0
 10
27.76592222435218
 20
465.1599226119295
 30
0.0
 10
30.13915682967638
 20
465.1599226119295
 30
0.0
  0
LWPOLYLINE
  5
72
330
1F
100
AcDbEntity
  8
0
  6
Continuous
 62
    18
420
        0
370
    25
100
AcDbPolyline
 90
        7
 70
     1
 43
0.0
 10
339.1672864405671
 20
529.4599226119292
 10
269.8852541378119
 20
529.4599226119292
 10
235.2442379864343
 20
469.4599226119292
 10
269.8852541378118
 20
409.4599226119292
 10
339.167286440567
 20
409.4599226119292
 10
373.8083025919445
 20
469.4599226119292
 10
339.1672864405671
 20
529.4599226119292
  0
LWPOLYLINE
  5
73
330
1F
100
AcDbEntity
  8
0
  6
Continuous
 62
    18
420
        0
370
    25
100
AcDbPolyline
 90
        7
 70
     1
 43
0.0
 10
280.8549092438115
 20
428.459922597028
 10
328.1976313345672
 20
428.459922597028
 10
351.8689923799452
 20
469.4599226119291
 10
328.1976313345673
 20
510.4599226268303
 10
280.8549092438116
 20
510.4599226268305
 10
257.1835481984337
 20
469.4599226119292
 10
280.8549092438115
 20
428.459922597028
  0
SPLINE
  5
74
330
1F
100
AcDbEntity
  8
0
  6
Continuous
 62
    18
420
        0
370
    25
100
AcDbSpline
210
0.0
220
0.0
230
1.0
 70
    11
 71
     3
 72
    17
 73
    13
 74
     0
 42
0.000000001
 43
0.0
 40
0.0
 40
0.0
 40
0.0
 40
0.0
 40
1.0
 40
1.0
 40
1.0
 40
2.0
 40
2.0
 40
2.0
 40
3.0
 40
3.0
 40
3.0
 40
4.0
 40
4.0
 40
4.0
 40
4.0
 10
360.8083025919445
 20
465.1599226119292
 30
0.0
 10
363.1815371972687
 20
465.1599226119292
 30
0.0
 10
365.1083025919445
 20
467.086688006605
 30
0.0
 10
365.1083025919445
 20
469.4599226119292
 30
0.0
 10
365.1083025919445
 20
471.8331572172535
 30
0.0
 10
363.1815371972687
 20
473.7599226119293
 30
0.0
 10
360.8083025919445
 20
473.7599226119293
 30
0.0
 10
358.4350679866203
 20
473.7599226119293
 30
0.0
 10
356.5083025919445
 20
471.8331572172535
 30
0.0
 10
356.5083025919445
 20
469.4599226119292
 30
0.0
 10
356.5083025919445
 20
467.086688006605
 30
0.0
 10
358.4350679866203
 20
465.1599226119292
 30
0.0
 10
360.8083025919445
 20
465.1599226119292
 30
0.0
  0
SPLINE
  5
75
330
1F
100
AcDbEntity
  8
0
  6
Continuous
 62
    18
420
        0
370
    25
100
AcDbSpline
210
0.0
220
0.0
230
1.0
 70
    11
 71
     3
 72
    17
 73
    13
 74
     0
 42
0.000000001
 43
0.0
 40
0.0
 40
0.0
 40
0.0
 40
0.0
 40
1.0
 40
1.0
 40
1.0
 40
2.0
 40
2.0
 40
2.0
 40
3.0
 40
3.0
 40
3.0
 40
4.0
 40
4.0
 40
4.0
 40
4.0
 10
248.2442379864343
 20
465.1599226119292
 30
0.0
 10
250.6174725917585
 20
465.1599226119292
 30
0.0
 10
252.5442379864343
 20
467.086688006605
 30
0.0
 10
252.5442379864343
 20
469.4599226119292
 30
0.0
 10
252.5442379864343
 20
471.8331572172535
 30
0.0
 10
250.6174725917585
 20
473.7599226119293
 30
0.0
 10
248.2442379864343
 20
473.7599226119293
 30
0.0
 10
245.8710033811101
 20
473.7599226119293
 30
0.0
 10
243.9442379864343
 20
471.8331572172535
 30
0.0
 10
243.9442379864343
 20
469.4599226119292
 30
0.0
 10
243.9442379864343
 20
467.086688006605
 30
0.0
 10
245.8710033811101
 20
465.1599226119292
 30
0.0
 10
248.2442379864343
 20
465.1599226119292
 30
0.0
  0
LWPOLYLINE
  5
76
330
1F
100
AcDbEntity
  8
0
  6
Continuous
 62
    18
420
        0
370
    25
100
AcDbPolyline
 90
        7
 70
     1
 43
0.0
 10
121.0622052838092
 20
663.5913290724806
 10
51.78017298105407
 20
663.5913290724806
 10
17.13915682967646
 20
603.5913290724806
 10
51.780172981054
 20
543.5913290724806
 10
121.0622052838091
 20
543.5913290724804
 10
155.7032214351866
 20
603.5913290724806
 10
121.0622052838092
 20
663.5913290724806
  0
LWPOLYLINE
  5
77
330
1F
100
AcDbEntity
  8
0
  6
Continuous
 62
    18
420
        0
370
    25
100
AcDbPolyline
 90
        7
 70
     1
 43
0.0
 10
62.7498280870537
 20
562.5913290575794
 10
110.0925501778094
 20
562.5913290575794
 10
133.7639112231873
 20
603.5913290724804
 10
110.0925501778095
 20
644.5913290873817
 10
62.74982808705377
 20
644.5913290873818
 10
39.07846704167588
 20
603.5913290724807
 10
62.7498280870537
 20
562.5913290575794
  0
SPLINE
  5
78
330
1F
100
AcDbEntity
  8
0
  6
Continuous
 62
    18
420
        0
370
    25
100
AcDbSpline
210
0.0
220
0.0
230
1.0
 70
    11
 71
     3
 72
    17
 73
    13
 74
     0
 42
0.000000001
 43
0.0
 40
0.0
 40
0.0
 40
0.0
 40
0.0
 40
1.0
 40
1.0
 40
1.0
 40
2.0
 40
2.0
 40
2.0
 40
3.0
 40
3.0
 40
3.0
 40
4.0
 40
4.0
 40
4.0
 40
4.0
 10
142.7032214351867
 20
599.2913290724806
 30
0.0
 10
145.0764560405109
 20
599.2913290724806
 30
0.0
 10
147.0032214351867
 20
601.2180944671564
 30
0.0
 10
147.0032214351867
 20
603.5913290724806
 30
0.0
 10
147.0032214351867
 20
605.9645636778048
 30
0.0
 10
145.0764560405109
 20
607.8913290724806
 30
0.0
 10
142.7032214351867
 20
607.8913290724806
 30
0.0
 10
140.3299868298625
 20
607.8913290724806
 30
0.0
 10
138.4032214351867
 20
605.9645636778048
 30
0.0
 10
138.4032214351867
 20
603.5913290724806
 30
0.0
 10
138.4032214351867
 20
601.2180944671564
 30
0.0
 10
140.3299868298625
 20
599.2913290724806
 30
0.0
 10
142.7032214351867
 20
599.2913290724806
 30
0.0
  0
SPLINE
  5
79
330
1F
100
AcDbEntity
  8
0
  6
Continuous
 62
    18
420
        0
370
    25
100
AcDbSpline
210
0.0
220
0.0
230
1.0
 70
    11
 71
     3
 72
    17
 73
    13
 74
     0
 42
0.000000001
 43
0.0
 40
0.0
 40
0.0
 40
0.0
 40
0.0
 40
1.0
 40
1.0
 40
1.0
 40
2.0
 40
2.0
 40
2.0
 40
3.0
 40
3.0
 40
3.0
 40
4.0
 40
4.0
 40
4.0
 40
4.0
 10
30.13915682967646
 20
599.2913290724806
 30
0.0
 10
32.51239143500067
 20
599.2913290724806
 30
0.0
 10
34.43915682967646
 20
601.2180944671563
 30
0.0
 10
34.43915682967646
 20
603.5913290724806
 30
0.0
 10
34.43915682967646
 20
605.9645636778048
 30
0.0
 10
32.51239143500067
 20
607.8913290724806
 30
0.0
 10
30.13915682967646
 20
607.8913290724806
 30
0.0
 10
27.76592222435226
 20
607.8913290724806
 30
0.0
 10
25.83915682967646
 20
605.9645636778048
 30
0.0
 10
25.83915682967646
 20
603.5913290724806
 30
0.0
 10
25.83915682967646
 20
601.2180944671563
 30
0.0
 10
27.76592222435226
 20
599.2913290724806
 30
0.0
 10
30.13915682967646
 20
599.2913290724806
 30
0.0
  0
LWPOLYLINE
  5
7A
330
1F
100
AcDbEntity
  8
0
  6
Continuous
 62
    18
420
        0
370
    25
100
AcDbPolyline
 90
        7
 70
     1
 43
0.0
 10
339.1672864405671
 20
663.5913290724803
 10
269.885254137812
 20
663.5913290724803
 10
235.2442379864344
 20
603.5913290724803
 10
269.8852541378119
 20
543.5913290724803
 10
339.167286440567
 20
543.5913290724802
 10
373.8083025919446
 20
603.5913290724803
 10
339.1672864405671
 20
663.5913290724803
  0
LWPOLYLINE
  5
7B
330
1F
100
AcDbEntity
  8
0
  6
Continuous
 62
    18
420
        0
370
    25
100
AcDbPolyline
 90
        7
 70
     1
 43
0.0
 10
280.8549092438116
 20
562.5913290575792
 10
328.1976313345673
 20
562.5913290575792
 10
351.8689923799452
 20
603.5913290724802
 10
328.1976313345674
 20
644.5913290873815
 10
280.8549092438117
 20
644.5913290873816
 10
257.1835481984338
 20
603.5913290724804
 10
280.8549092438116
 20
562.5913290575792
  0
SPLINE
  5
7C
330
1F
100
AcDbEntity
  8
0
  6
Continuous
 62
    18
420
        0
370
    25
100
AcDbSpline
210
0.0
220
0.0
230
1.0
 70
    11
 71
     3
 72
    17
 73
    13
 74
     0
 42
0.000000001
 43
0.0
 40
0.0
 40
0.0
 40
0.0
 40
0.0
 40
1.0
 40
1.0
 40
1.0
 40
2.0
 40
2.0
 40
2.0
 40
3.0
 40
3.0
 40
3.0
 40
4.0
 40
4.0
 40
4.0
 40
4.0
 10
360.8083025919445
 20
599.2913290724804
 30
0.0
 10
363.1815371972688
 20
599.2913290724804
 30
0.0
 10
365.1083025919446
 20
601.2180944671562
 30
0.0
 10
365.1083025919446
 20
603.5913290724803
 30
0.0
 10
365.1083025919446
 20
605.9645636778046
 30
0.0
 10
363.1815371972688
 20
607.8913290724804
 30
0.0
 10
360.8083025919445
 20
607.8913290724804
 30
0.0
 10
358.4350679866204
 20
607.8913290724804
 30
0.0
 10
356.5083025919445
 20
605.9645636778046
 30
0.0
 10
356.5083025919445
 20
603.5913290724803
 30
0.0
 10
356.5083025919445
 20
601.2180944671562
 30
0.0
 10
358.4350679866204
 20
599.2913290724804
 30
0.0
 10
360.8083025919445
 20
599.2913290724804
 30
0.0
  0
SPLINE
  5
7D
330
1F
100
AcDbEntity
  8
0
  6
Continuous
 62
    18
420
        0
370
    25
100
AcDbSpline
210
0.0
220
0.0
230
1.0
 70
    11
 71
     3
 72
    17
 73
    13
 74
     0
 42
0.000000001
 43
0.0
 40
0.0
 40
0.0
 40
0.0
 40
0.0
 40
1.0
 40
1.0
 40
1.0
 40
2.0
 40
2.0
 40
2.0
 40
3.0
 40
3.0
 40
3.0
 40
4.0
 40
4.0
 40
4.0
 40
4.0
 10
248.2442379864344
 20
599.2913290724804
 30
0.0
 10
250.6174725917586
 20
599.2913290724804
 30
0.0
 10
252.5442379864344
 20
601.2180944671561
 30
0.0
 10
252.5442379864344
 20
603.5913290724803
 30
0.0
 10
252.5442379864344
 20
605.9645636778046
 30
0.0
 10
250.6174725917586
 20
607.8913290724804
 30
0.0
 10
248.2442379864344
 20
607.8913290724804
 30
0.0
 10
245.8710033811102
 20
607.8913290724804
 30
0.0
 10
243.9442379864344
 20
605.9645636778046
 30
0.0
 10
243.9442379864344
 20
603.5913290724803
 30
0.0
 10
243.9442379864344
 20
601.2180944671561
 30
0.0
 10
245.8710033811102
 20
599.2913290724804
 30
0.0
 10
248.2442379864344
 20
599.2913290724804
 30
0.0
  0
LWPOLYLINE
  5
7E
330
1F
100
AcDbEntity
  8
0
  6
Continuous
 62
    18
420
        0
370
    25
100
AcDbPolyline
 90
        7
 70
     1
 43
0.0
 10
339.1672864405672
 20
127.0657032302759
 10
269.8852541378121
 20
127.0657032302759
 10
235.2442379864345
 20
67.06570323027586
 10
269.885254137812
 20
7.065703230275858
 10
339.1672864405671
 20
7.065703230275744
 10
373.8083025919447
 20
67.06570323027586
 10
339.1672864405672
 20
127.0657032302759
  0
LWPOLYLINE
  5
7F
330
1F
100
AcDbEntity
  8
0
  6
Continuous
 62
    18
420
        0
370
    25
100
AcDbPolyline
 90
        7
 70
     1
 43
0.0
 10
280.8549092438117
 20
26.06570321537481
 10
328.1976313345674
 20
26.06570321537458
 10
351.8689923799453
 20
67.06570323027574
 10
328.1976313345675
 20
108.065703245177
 10
280.8549092438117
 20
108.065703245177
 10
257.1835481984339
 20
67.06570323027597
 10
280.8549092438117
 20
26.06570321537481
  0
SPLINE
  5
80
330
1F
100
AcDbEntity
  8
0
  6
Continuous
 62
    18
420
        0
370
    25
100
AcDbSpline
210
0.0
220
0.0
230
1.0
 70
    11
 71
     3
 72
    17
 73
    13
 74
     0
 42
0.000000001
 43
0.0
 40
0.0
 40
0.0
 40
0.0
 40
0.0
 40
1.0
 40
1.0
 40
1.0
 40
2.0
 40
2.0
 40
2.0
 40
3.0
 40
3.0
 40
3.0
 40
4.0
 40
4.0
 40
4.0
 40
4.0
 10
360.8083025919447
 20
62.7657032302759
 30
0.0
 10
363.1815371972688
 20
62.7657032302759
 30
0.0
 10
365.1083025919447
 20
64.69246862495174
 30
0.0
 10
365.1083025919447
 20
67.06570323027586
 30
0.0
 10
365.1083025919447
 20
69.43893783560009
 30
0.0
 10
363.1815371972688
 20
71.36570323027593
 30
0.0
 10
360.8083025919447
 20
71.36570323027593
 30
0.0
 10
358.4350679866205
 20
71.36570323027593
 30
0.0
 10
356.5083025919446
 20
69.43893783560009
 30
0.0
 10
356.5083025919446
 20
67.06570323027586
 30
0.0
 10
356.5083025919446
 20
64.69246862495174
 30
0.0
 10
358.4350679866205
 20
62.7657032302759
 30
0.0
 10
360.8083025919447
 20
62.7657032302759
 30
0.0
  0
SPLINE
  5
81
330
1F
100
AcDbEntity
  8
0
  6
Continuous
 62
    18
420
        0
370
    25
100
AcDbSpline
210
0.0
220
0.0
230
1.0
 70
    11
 71
     3
 72
    17
 73
    13
 74
     0
 42
0.000000001
 43
0.0
 40
0.0
 40
0.0
 40
0.0
 40
0.0
 40
1.0
 40
1.0
 40
1.0
 40
2.0
 40
2.0
 40
2.0
 40
3.0
 40
3.0
 40
3.0
 40
4.0
 40
4.0
 40
4.0
 40
4.0
 10
248.2442379864345
 20
62.7657032302759
 30
0.0
 10
250.6174725917587
 20
62.7657032302759
 30
0.0
 10
252.5442379864344
 20
64.69246862495174
 30
0.0
 10
252.5442379864344
 20
67.06570323027586
 30
0.0
 10
252.5442379864344
 20
69.43893783560009
 30
0.0
 10
250.6174725917587
 20
71.36570323027593
 30
0.0
 10
248.2442379864345
 20
71.36570323027593
 30
0.0
 10
245.8710033811103
 20
71.36570323027593
 30
0.0
 10
243.9442379864344
 20
69.43893783560009
 30
0.0
 10
243.9442379864344
 20
67.06570323027586
 30
0.0
 10
243.9442379864344
 20
64.69246862495174
 30
0.0
 10
245.8710033811103
 20
62.7657032302759
 30
0.0
 10
248.2442379864345
 20
62.7657032302759
 30
0.0
  0
LWPOLYLINE
  5
82
330
1F
100
AcDbEntity
  8
0
  6
Continuous
 62
    18
420
        0
370
    25
100
AcDbPolyline
 90
        7
 70
     1
 43
0.0
 10
121.0622052838092
 20
261.1971096908271
 10
51.78017298105407
 20
261.1971096908271
 10
17.13915682967646
 20
201.197109690827
 10
51.780172981054
 20
141.1971096908271
 10
121.0622052838091
 20
141.197109690827
 10
155.7032214351866
 20
201.197109690827
 10
121.0622052838092
 20
261.1971096908271
  0
LWPOLYLINE
  5
83
330
1F
100
AcDbEntity
  8
0
  6
Continuous
 62
    18
420
        0
370
    25
100
AcDbPolyline
 90
        7
 70
     1
 43
0.0
 10
62.7498280870537
 20
160.1971096759258
 10
110.0925501778094
 20
160.1971096759258
 10
133.7639112231873
 20
201.197109690827
 10
110.0925501778095
 20
242.1971097057282
 10
62.74982808705377
 20
242.1971097057282
 10
39.07846704167588
 20
201.1971096908271
 10
62.7498280870537
 20
160.1971096759258
  0
SPLINE
  5
84
330
1F
100
AcDbEntity
  8
0
  6
Continuous
 62
    18
420
        0
370
    25
100
AcDbSpline
210
0.0
220
0.0
230
1.0
 70
    11
 71
     3
 72
    17
 73
    13
 74
     0
 42
0.000000001
 43
0.0
 40
0.0
 40
0.0
 40
0.0
 40
0.0
 40
1.0
 40
1.0
 40
1.0
 40
2.0
 40
2.0
 40
2.0
 40
3.0
 40
3.0
 40
3.0
 40
4.0
 40
4.0
 40
4.0
 40
4.0
 10
142.7032214351867
 20
196.8971096908271
 30
0.0
 10
145.0764560405109
 20
196.8971096908271
 30
0.0
 10
147.0032214351867
 20
198.8238750855029
 30
0.0
 10
147.0032214351867
 20
201.197109690827
 30
0.0
 10
147.0032214351867
 20
203.5703442961512
 30
0.0
 10
145.0764560405109
 20
205.4971096908271
 30
0.0
 10
142.7032214351867
 20
205.4971096908271
 30
0.0
 10
140.3299868298625
 20
205.4971096908271
 30
0.0
 10
138.4032214351867
 20
203.5703442961512
 30
0.0
 10
138.4032214351867
 20
201.197109690827
 30
0.0
 10
138.4032214351867
 20
198.8238750855029
 30
0.0
 10
140.3299868298625
 20
196.8971096908271
 30
0.0
 10
142.7032214351867
 20
196.8971096908271
 30
0.0
  0
SPLINE
  5
85
330
1F
100
AcDbEntity
  8
0
  6
Continuous
 62
    18
420
        0
370
    25
100
AcDbSpline
210
0.0
220
0.0
230
1.0
 70
    11
 71
     3
 72
    17
 73
    13
 74
     0
 42
0.000000001
 43
0.0
 40
0.0
 40
0.0
 40
0.0
 40
0.0
 40
1.0
 40
1.0
 40
1.0
 40
2.0
 40
2.0
 40
2.0
 40
3.0
 40
3.0
 40
3.0
 40
4.0
 40
4.0
 40
4.0
 40
4.0
 10
30.13915682967646
 20
196.8971096908271
 30
0.0
 10
32.51239143500067
 20
196.8971096908271
 30
0.0
 10
34.43915682967646
 20
198.8238750855029
 30
0.0
 10
34.43915682967646
 20
201.197109690827
 30
0.0
 10
34.43915682967646
 20
203.5703442961512
 30
0.0
 10
32.51239143500067
 20
205.4971096908271
 30
0.0
 10
30.13915682967646
 20
205.4971096908271
 30
0.0
 10
27.76592222435226
 20
205.4971096908271
 30
0.0
 10
25.83915682967646
 20
203.5703442961512
 30
0.0
 10
25.83915682967646
 20
201.197109690827
 30
0.0
 10
25.83915682967646
 20
198.8238750855029
 30
0.0
 10
27.76592222435226
 20
196.8971096908271
 30
0.0
 10
30.13915682967646
 20
196.8971096908271
 30
0.0
  0
LWPOLYLINE
  5
86
330
1F
100
AcDbEntity
  8
0
  6
Continuous
 62
    18
420
        0
370
    25
100
AcDbPolyline
 90
        7
 70
     1
 43
0.0
 10
230.1147458621882
 20
194.1314064605513
 10
160.832713559433
 20
194.1314064605513
 10
126.1916974080554
 20
134.1314064605513
 10
160.832713559433
 20
74.13140646055137
 10
230.114745862188
 20
74.13140646055126
 10
264.7557620135656
 20
134.1314064605513
 10
230.1147458621882
 20
194.1314064605513
  0
LWPOLYLINE
  5
87
330
1F
100
AcDbEntity
  8
0
  6
Continuous
 62
    18
420
        0
370
    25
100
AcDbPolyline
 90
        7
 70
     1
 43
0.0
 10
171.8023686654327
 20
93.1314064456501
 10
219.1450907561884
 20
93.1314064456501
 10
242.8164518015663
 20
134.1314064605513
 10
219.1450907561885
 20
175.1314064754524
 10
171.8023686654327
 20
175.1314064754524
 10
148.1310076200548
 20
134.1314064605514
 10
171.8023686654327
 20
93.1314064456501
  0
SPLINE
  5
88
330
1F
100
AcDbEntity
  8
0
  6
Continuous
 62
    18
420
        0
370
    25
100
AcDbSpline
210
0.0
220
0.0
230
1.0
 70
    11
 71
     3
 72
    17
 73
    13
 74
     0
 42
0.000000001
 43
0.0
 40
0.0
 40
0.0
 40
0.0
 40
0.0
 40
1.0
 40
1.0
 40
1.0
 40
2.0
 40
2.0
 40
2.0
 40
3.0
 40
3.0
 40
3.0
 40
4.0
 40
4.0
 40
4.0
 40
4.0
 10
251.7557620135656
 20
129.8314064605513
 30
0.0
 10
254.1289966188898
 20
129.8314064605513
 30
0.0
 10
256.0557620135656
 20
131.7581718552271
 30
0.0
 10
256.0557620135656
 20
134.1314064605513
 30
0.0
 10
256.0557620135656
 20
136.5046410658755
 30
0.0
 10
254.1289966188898
 20
138.4314064605513
 30
0.0
 10
251.7557620135656
 20
138.4314064605513
 30
0.0
 10
249.3825274082414
 20
138.4314064605513
 30
0.0
 10
247.4557620135656
 20
136.5046410658755
 30
0.0
 10
247.4557620135656
 20
134.1314064605513
 30
0.0
 10
247.4557620135656
 20
131.7581718552271
 30
0.0
 10
249.3825274082414
 20
129.8314064605513
 30
0.0
 10
251.7557620135656
 20
129.8314064605513
 30
0.0
  0
SPLINE
  5
89
330
1F
100
AcDbEntity
  8
0
  6
Continuous
 62
    18
420
        0
370
    25
100
AcDbSpline
210
0.0
220
0.0
230
1.0
 70
    11
 71
     3
 72
    17
 73
    13
 74
     0
 42
0.000000001
 43
0.0
 40
0.0
 40
0.0
 40
0.0
 40
0.0
 40
1.0
 40
1.0
 40
1.0
 40
2.0
 40
2.0
 40
2.0
 40
3.0
 40
3.0
 40
3.0
 40
4.0
 40
4.0
 40
4.0
 40
4.0
 10
139.1916974080554
 20
129.8314064605513
 30
0.0
 10
141.5649320133796
 20
129.8314064605513
 30
0.0
 10
143.4916974080554
 20
131.7581718552271
 30
0.0
 10
143.4916974080554
 20
134.1314064605513
 30
0.0
 10
143.4916974080554
 20
136.5046410658755
 30
0.0
 10
141.5649320133796
 20
138.4314064605513
 30
0.0
 10
139.1916974080554
 20
138.4314064605513
 30
0.0
 10
136.8184628027312
 20
138.4314064605513
 30
0.0
 10
134.8916974080554
 20
136.5046410658755
 30
0.0
 10
134.8916974080554
 20
134.1314064605513
 30
0.0
 10
134.8916974080554
 20
131.7581718552271
 30
0.0
 10
136.8184628027312
 20
129.8314064605513
 30
0.0
 10
139.1916974080554
 20
129.8314064605513
 30
0.0
  0
LWPOLYLINE
  5
8A
330
1F
100
AcDbEntity
  8
0
  6
Continuous
 62
    18
420
        0
370
    25
100
AcDbPolyline
 90
        7
 70
     1
 43
0.0
 10
448.2198270189462
 20
194.1314064605515
 10
378.9377947161911
 20
194.1314064605515
 10
344.2967785648135
 20
134.1314064605515
 10
378.937794716191
 20
74.13140646055149
 10
448.2198270189461
 20
74.13140646055137
 10
482.8608431703237
 20
134.1314064605515
 10
448.2198270189462
 20
194.1314064605515
  0
LWPOLYLINE
  5
8B
330
1F
100
AcDbEntity
  8
0
  6
Continuous
 62
    18
420
        0
370
    25
100
AcDbPolyline
 90
        7
 70
     1
 43
0.0
 10
389.9074498221907
 20
93.13140644565033
 10
437.2501719129464
 20
93.13140644565021
 10
460.9215329583243
 20
134.1314064605514
 10
437.2501719129465
 20
175.1314064754526
 10
389.9074498221908
 20
175.1314064754526
 10
366.2360887768129
 20
134.1314064605515
 10
389.9074498221907
 20
93.13140644565033
  0
SPLINE
  5
8C
330
1F
100
AcDbEntity
  8
0
  6
Continuous
 62
    18
420
        0
370
    25
100
AcDbSpline
210
0.0
220
0.0
230
1.0
 70
    11
 71
     3
 72
    17
 73
    13
 74
     0
 42
0.000000001
 43
0.0
 40
0.0
 40
0.0
 40
0.0
 40
0.0
 40
1.0
 40
1.0
 40
1.0
 40
2.0
 40
2.0
 40
2.0
 40
3.0
 40
3.0
 40
3.0
 40
4.0
 40
4.0
 40
4.0
 40
4.0
 10
469.8608431703237
 20
129.8314064605514
 30
0.0
 10
472.2340777756478
 20
129.8314064605514
 30
0.0
 10
474.1608431703237
 20
131.7581718552273
 30
0.0
 10
474.1608431703237
 20
134.1314064605515
 30
0.0
 10
474.1608431703237
 20
136.5046410658757
 30
0.0
 10
472.2340777756478
 20
138.4314064605516
 30
0.0
 10
469.8608431703237
 20
138.4314064605516
 30
0.0
 10
467.4876085649995
 20
138.4314064605516
 30
0.0
 10
465.5608431703237
 20
136.5046410658757
 30
0.0
 10
465.5608431703237
 20
134.1314064605515
 30
0.0
 10
465.5608431703237
 20
131.7581718552273
 30
0.0
 10
467.4876085649995
 20
129.8314064605514
 30
0.0
 10
469.8608431703237
 20
129.8314064605514
 30
0.0
  0
SPLINE
  5
8D
330
1F
100
AcDbEntity
  8
0
  6
Continuous
 62
    18
420
        0
370
    25
100
AcDbSpline
210
0.0
220
0.0
230
1.0
 70
    11
 71
     3
 72
    17
 73
    13
 74
     0
 42
0.000000001
 43
0.0
 40
0.0
 40
0.0
 40
0.0
 40
0.0
 40
1.0
 40
1.0
 40
1.0
 40
2.0
 40
2.0
 40
2.0
 40
3.0
 40
3.0
 40
3.0
 40
4.0
 40
4.0
 40
4.0
 40
4.0
 10
357.2967785648135
 20
129.8314064605514
 30
0.0
 10
359.6700131701377
 20
129.8314064605514
 30
0.0
 10
361.5967785648135
 20
131.7581718552273
 30
0.0
 10
361.5967785648135
 20
134.1314064605515
 30
0.0
 10
361.5967785648135
 20
136.5046410658757
 30
0.0
 10
359.6700131701377
 20
138.4314064605516
 30
0.0
 10
357.2967785648135
 20
138.4314064605516
 30
0.0
 10
354.9235439594893
 20
138.4314064605516
 30
0.0
 10
352.9967785648135
 20
136.5046410658757
 30
0.0
 10
352.9967785648135
 20
134.1314064605515
 30
0.0
 10
352.9967785648135
 20
131.7581718552273
 30
0.0
 10
354.9235439594893
 20
129.8314064605514
 30
0.0
 10
357.2967785648135
 20
129.8314064605514
 30
0.0
  0
LWPOLYLINE
  5
8E
330
1F
100
AcDbEntity
  8
0
  6
Continuous
 62
    18
420
        0
370
    25
100
AcDbPolyline
 90
        7
 70
     1
 43
0.0
 10
230.1147458621882
 20
328.2628129211026
 10
160.832713559433
 20
328.2628129211026
 10
126.1916974080554
 20
268.2628129211026
 10
160.832713559433
 20
208.2628129211026
 10
230.114745862188
 20
208.2628129211026
 10
264.7557620135656
 20
268.2628129211026
 10
230.1147458621882
 20
328.2628129211026
  0
LWPOLYLINE
  5
8F
330
1F
100
AcDbEntity
  8
0
  6
Continuous
 62
    18
420
        0
370
    25
100
AcDbPolyline
 90
        7
 70
     1
 43
0.0
 10
171.8023686654327
 20
227.2628129062015
 10
219.1450907561884
 20
227.2628129062014
 10
242.8164518015663
 20
268.2628129211026
 10
219.1450907561885
 20
309.2628129360039
 10
171.8023686654327
 20
309.2628129360039
 10
148.1310076200548
 20
268.2628129211027
 10
171.8023686654327
 20
227.2628129062015
  0
SPLINE
  5
90
330
1F
100
AcDbEntity
  8
0
  6
Continuous
 62
    18
420
        0
370
    25
100
AcDbSpline
210
0.0
220
0.0
230
1.0
 70
    11
 71
     3
 72
    17
 73
    13
 74
     0
 42
0.000000001
 43
0.0
 40
0.0
 40
0.0
 40
0.0
 40
0.0
 40
1.0
 40
1.0
 40
1.0
 40
2.0
 40
2.0
 40
2.0
 40
3.0
 40
3.0
 40
3.0
 40
4.0
 40
4.0
 40
4.0
 40
4.0
 10
251.7557620135656
 20
263.9628129211027
 30
0.0
 10
254.1289966188898
 20
263.9628129211027
 30
0.0
 10
256.0557620135656
 20
265.8895783157785
 30
0.0
 10
256.0557620135656
 20
268.2628129211026
 30
0.0
 10
256.0557620135656
 20
270.6360475264269
 30
0.0
 10
254.1289966188898
 20
272.5628129211027
 30
0.0
 10
251.7557620135656
 20
272.5628129211027
 30
0.0
 10
249.3825274082414
 20
272.5628129211027
 30
0.0
 10
247.4557620135656
 20
270.6360475264269
 30
0.0
 10
247.4557620135656
 20
268.2628129211026
 30
0.0
 10
247.4557620135656
 20
265.8895783157785
 30
0.0
 10
249.3825274082414
 20
263.9628129211027
 30
0.0
 10
251.7557620135656
 20
263.9628129211027
 30
0.0
  0
SPLINE
  5
91
330
1F
100
AcDbEntity
  8
0
  6
Continuous
 62
    18
420
        0
370
    25
100
AcDbSpline
210
0.0
220
0.0
230
1.0
 70
    11
 71
     3
 72
    17
 73
    13
 74
     0
 42
0.000000001
 43
0.0
 40
0.0
 40
0.0
 40
0.0
 40
0.0
 40
1.0
 40
1.0
 40
1.0
 40
2.0
 40
2.0
 40
2.0
 40
3.0
 40
3.0
 40
3.0
 40
4.0
 40
4.0
 40
4.0
 40
4.0
 10
139.1916974080554
 20
263.9628129211027
 30
0.0
 10
141.5649320133796
 20
263.9628129211027
 30
0.0
 10
143.4916974080554
 20
265.8895783157785
 30
0.0
 10
143.4916974080554
 20
268.2628129211026
 30
0.0
 10
143.4916974080554
 20
270.6360475264269
 30
0.0
 10
141.5649320133796
 20
272.5628129211027
 30
0.0
 10
139.1916974080554
 20
272.5628129211027
 30
0.0
 10
136.8184628027312
 20
272.5628129211027
 30
0.0
 10
134.8916974080554
 20
270.6360475264269
 30
0.0
 10
134.8916974080554
 20
268.2628129211026
 30
0.0
 10
134.8916974080554
 20
265.8895783157785
 30
0.0
 10
136.8184628027312
 20
263.9628129211027
 30
0.0
 10
139.1916974080554
 20
263.9628129211027
 30
0.0
  0
LWPOLYLINE
  5
92
330
1F
100
AcDbEntity
  8
0
  6
Continuous
 62
    18
420
        0
370
    25
100
AcDbPolyline
 90
        7
 70
     1
 43
0.0
 10
448.2198270189462
 20
328.2628129211028
 10
378.9377947161911
 20
328.2628129211028
 10
344.2967785648135
 20
268.2628129211028
 10
378.937794716191
 20
208.2628129211029
 10
448.2198270189461
 20
208.2628129211027
 10
482.8608431703237
 20
268.2628129211028
 10
448.2198270189462
 20
328.2628129211028
  0
LWPOLYLINE
  5
93
330
1F
100
AcDbEntity
  8
0
  6
Continuous
 62
    18
420
        0
370
    25
100
AcDbPolyline
 90
        7
 70
     1
 43
0.0
 10
389.9074498221907
 20
227.2628129062016
 10
437.2501719129464
 20
227.2628129062016
 10
460.9215329583243
 20
268.2628129211027
 10
437.2501719129465
 20
309.262812936004
 10
389.9074498221908
 20
309.262812936004
 10
366.2360887768129
 20
268.2628129211029
 10
389.9074498221907
 20
227.2628129062016
  0
SPLINE
  5
94
330
1F
100
AcDbEntity
  8
0
  6
Continuous
 62
    18
420
        0
370
    25
100
AcDbSpline
210
0.0
220
0.0
230
1.0
 70
    11
 71
     3
 72
    17
 73
    13
 74
     0
 42
0.000000001
 43
0.0
 40
0.0
 40
0.0
 40
0.0
 40
0.0
 40
1.0
 40
1.0
 40
1.0
 40
2.0
 40
2.0
 40
2.0
 40
3.0
 40
3.0
 40
3.0
 40
4.0
 40
4.0
 40
4.0
 40
4.0
 10
469.8608431703237
 20
263.9628129211029
 30
0.0
 10
472.2340777756478
 20
263.9628129211029
 30
0.0
 10
474.1608431703237
 20
265.8895783157787
 30
0.0
 10
474.1608431703237
 20
268.2628129211028
 30
0.0
 10
474.1608431703237
 20
270.636047526427
 30
0.0
 10
472.2340777756478
 20
272.5628129211029
 30
0.0
 10
469.8608431703237
 20
272.5628129211029
 30
0.0
 10
467.4876085649995
 20
272.5628129211029
 30
0.0
 10
465.5608431703237
 20
270.636047526427
 30
0.0
 10
465.5608431703237
 20
268.2628129211028
 30
0.0
 10
465.5608431703237
 20
265.8895783157787
 30
0.0
 10
467.4876085649995
 20
263.9628129211029
 30
0.0
 10
469.8608431703237
 20
263.9628129211029
 30
0.0
  0
SPLINE
  5
95
330
1F
100
AcDbEntity
  8
0
  6
Continuous
 62
    18
420
        0
370
    25
100
AcDbSpline
210
0.0
220
0.0
230
1.0
 70
    11
 71
     3
 72
    17
 73
    13
 74
     0
 42
0.000000001
 43
0.0
 40
0.0
 40
0.0
 40
0.0
 40
0.0
 40
1.0
 40
1.0
 40
1.0
 40
2.0
 40
2.0
 40
2.0
 40
3.0
 40
3.0
 40
3.0
 40
4.0
 40
4.0
 40
4.0
 40
4.0
 10
357.2967785648135
 20
263.9628129211029
 30
0.0
 10
359.6700131701377
 20
263.9628129211029
 30
0.0
 10
361.5967785648135
 20
265.8895783157787
 30
0.0
 10
361.5967785648135
 20
268.2628129211028
 30
0.0
 10
361.5967785648135
 20
270.636047526427
 30
0.0
 10
359.6700131701377
 20
272.5628129211029
 30
0.0
 10
357.2967785648135
 20
272.5628129211029
 30
0.0
 10
354.9235439594893
 20
272.5628129211029
 30
0.0
 10
352.9967785648135
 20
270.636047526427
 30
0.0
 10
352.9967785648135
 20
268.2628129211028
 30
0.0
 10
352.9967785648135
 20
265.8895783157787
 30
0.0
 10
354.9235439594893
 20
263.9628129211029
 30
0.0
 10
357.2967785648135
 20
263.9628129211029
 30
0.0
  0
LWPOLYLINE
  5
96
330
1F
100
AcDbEntity
  8
0
  6
Continuous
 62
    18
420
        0
370
    25
100
AcDbPolyline
 90
        7
 70
     1
 43
0.0
 10
230.1147458621881
 20
462.3942193816536
 10
160.832713559433
 20
462.3942193816536
 10
126.1916974080554
 20
402.3942193816536
 10
160.8327135594329
 20
342.3942193816536
 10
230.114745862188
 20
342.3942193816535
 10
264.7557620135656
 20
402.3942193816536
 10
230.1147458621881
 20
462.3942193816536
  0
LWPOLYLINE
  5
97
330
1F
100
AcDbEntity
  8
0
  6
Continuous
 62
    18
420
        0
370
    25
100
AcDbPolyline
 90
        7
 70
     1
 43
0.0
 10
171.8023686654326
 20
361.3942193667524
 10
219.1450907561883
 20
361.3942193667523
 10
242.8164518015662
 20
402.3942193816535
 10
219.1450907561884
 20
443.3942193965547
 10
171.8023686654327
 20
443.3942193965548
 10
148.1310076200548
 20
402.3942193816536
 10
171.8023686654326
 20
361.3942193667524
  0
SPLINE
  5
98
330
1F
100
AcDbEntity
  8
0
  6
Continuous
 62
    18
420
        0
370
    25
100
AcDbSpline
210
0.0
220
0.0
230
1.0
 70
    11
 71
     3
 72
    17
 73
    13
 74
     0
 42
0.000000001
 43
0.0
 40
0.0
 40
0.0
 40
0.0
 40
0.0
 40
1.0
 40
1.0
 40
1.0
 40
2.0
 40
2.0
 40
2.0
 40
3.0
 40
3.0
 40
3.0
 40
4.0
 40
4.0
 40
4.0
 40
4.0
 10
251.7557620135655
 20
398.0942193816535
 30
0.0
 10
254.1289966188897
 20
398.0942193816535
 30
0.0
 10
256.0557620135656
 20
400.0209847763294
 30
0.0
 10
256.0557620135656
 20
402.3942193816536
 30
0.0
 10
256.0557620135656
 20
404.7674539869778
 30
0.0
 10
254.1289966188897
 20
406.6942193816536
 30
0.0
 10
251.7557620135655
 20
406.6942193816536
 30
0.0
 10
249.3825274082414
 20
406.6942193816536
 30
0.0
 10
247.4557620135655
 20
404.7674539869778
 30
0.0
 10
247.4557620135655
 20
402.3942193816536
 30
0.0
 10
247.4557620135655
 20
400.0209847763294
 30
0.0
 10
249.3825274082414
 20
398.0942193816535
 30
0.0
 10
251.7557620135655
 20
398.0942193816535
 30
0.0
  0
SPLINE
  5
99
330
1F
100
AcDbEntity
  8
0
  6
Continuous
 62
    18
420
        0
370
    25
100
AcDbSpline
210
0.0
220
0.0
230
1.0
 70
    11
 71
     3
 72
    17
 73
    13
 74
     0
 42
0.000000001
 43
0.0
 40
0.0
 40
0.0
 40
0.0
 40
0.0
 40
1.0
 40
1.0
 40
1.0
 40
2.0
 40
2.0
 40
2.0
 40
3.0
 40
3.0
 40
3.0
 40
4.0
 40
4.0
 40
4.0
 40
4.0
 10
139.1916974080554
 20
398.0942193816535
 30
0.0
 10
141.5649320133795
 20
398.0942193816535
 30
0.0
 10
143.4916974080554
 20
400.0209847763294
 30
0.0
 10
143.4916974080554
 20
402.3942193816536
 30
0.0
 10
143.4916974080554
 20
404.7674539869778
 30
0.0
 10
141.5649320133795
 20
406.6942193816536
 30
0.0
 10
139.1916974080554
 20
406.6942193816536
 30
0.0
 10
136.8184628027311
 20
406.6942193816536
 30
0.0
 10
134.8916974080553
 20
404.7674539869778
 30
0.0
 10
134.8916974080553
 20
402.3942193816536
 30
0.0
 10
134.8916974080553
 20
400.0209847763294
 30
0.0
 10
136.8184628027311
 20
398.0942193816535
 30
0.0
 10
139.1916974080554
 20
398.0942193816535
 30
0.0
  0
LWPOLYLINE
  5
9A
330
1F
100
AcDbEntity
  8
0
  6
Continuous
 62
    18
420
        0
370
    25
100
AcDbPolyline
 90
        7
 70
     1
 43
0.0
 10
448.219827018946
 20
462.3942193816537
 10
378.9377947161909
 20
462.3942193816537
 10
344.2967785648133
 20
402.3942193816537
 10
378.9377947161909
 20
342.3942193816537
 10
448.219827018946
 20
342.3942193816536
 10
482.8608431703236
 20
402.3942193816537
 10
448.219827018946
 20
462.3942193816537
  0
LWPOLYLINE
  5
9B
330
1F
100
AcDbEntity
  8
0
  6
Continuous
 62
    18
420
        0
370
    25
100
AcDbPolyline
 90
        7
 70
     1
 43
0.0
 10
389.9074498221905
 20
361.3942193667525
 10
437.2501719129463
 20
361.3942193667525
 10
460.9215329583242
 20
402.3942193816536
 10
437.2501719129464
 20
443.3942193965548
 10
389.9074498221906
 20
443.3942193965549
 10
366.2360887768127
 20
402.3942193816538
 10
389.9074498221905
 20
361.3942193667525
  0
SPLINE
  5
9C
330
1F
100
AcDbEntity
  8
0
  6
Continuous
 62
    18
420
        0
370
    25
100
AcDbSpline
210
0.0
220
0.0
230
1.0
 70
    11
 71
     3
 72
    17
 73
    13
 74
     0
 42
0.000000001
 43
0.0
 40
0.0
 40
0.0
 40
0.0
 40
0.0
 40
1.0
 40
1.0
 40
1.0
 40
2.0
 40
2.0
 40
2.0
 40
3.0
 40
3.0
 40
3.0
 40
4.0
 40
4.0
 40
4.0
 40
4.0
 10
469.8608431703236
 20
398.0942193816537
 30
0.0
 10
472.2340777756477
 20
398.0942193816537
 30
0.0
 10
474.1608431703236
 20
400.0209847763296
 30
0.0
 10
474.1608431703236
 20
402.3942193816537
 30
0.0
 10
474.1608431703236
 20
404.767453986978
 30
0.0
 10
472.2340777756477
 20
406.6942193816537
 30
0.0
 10
469.8608431703236
 20
406.6942193816537
 30
0.0
 10
467.4876085649993
 20
406.6942193816537
 30
0.0
 10
465.5608431703235
 20
404.767453986978
 30
0.0
 10
465.5608431703235
 20
402.3942193816537
 30
0.0
 10
465.5608431703235
 20
400.0209847763296
 30
0.0
 10
467.4876085649993
 20
398.0942193816537
 30
0.0
 10
469.8608431703236
 20
398.0942193816537
 30
0.0
  0
SPLINE
  5
9D
330
1F
100
AcDbEntity
  8
0
  6
Continuous
 62
    18
420
        0
370
    25
100
AcDbSpline
210
0.0
220
0.0
230
1.0
 70
    11
 71
     3
 72
    17
 73
    13
 74
     0
 42
0.000000001
 43
0.0
 40
0.0
 40
0.0
 40
0.0
 40
0.0
 40
1.0
 40
1.0
 40
1.0
 40
2.0
 40
2.0
 40
2.0
 40
3.0
 40
3.0
 40
3.0
 40
4.0
 40
4.0
 40
4.0
 40
4.0
 10
357.2967785648133
 20
398.0942193816537
 30
0.0
 10
359.6700131701376
 20
398.0942193816537
 30
0.0
 10
361.5967785648133
 20
400.0209847763296
 30
0.0
 10
361.5967785648133
 20
402.3942193816537
 30
0.0
 10
361.5967785648133
 20
404.767453986978
 30
0.0
 10
359.6700131701376
 20
406.6942193816537
 30
0.0
 10
357.2967785648133
 20
406.6942193816537
 30
0.0
 10
354.9235439594891
 20
406.6942193816537
 30
0.0
 10
352.9967785648134
 20
404.767453986978
 30
0.0
 10
352.9967785648134
 20
402.3942193816537
 30
0.0
 10
352.9967785648134
 20
400.0209847763296
 30
0.0
 10
354.9235439594891
 20
398.0942193816537
 30
0.0
 10
357.2967785648133
 20
398.0942193816537
 30
0.0
  0
LWPOLYLINE
  5
9E
330
1F
100
AcDbEntity
  8
0
  6
Continuous
 62
    18
420
        0
370
    25
100
AcDbPolyline
 90
        7
 70
     1
 43
0.0
 10
230.1147458621881
 20
596.5256258422046
 10
160.832713559433
 20
596.5256258422047
 10
126.1916974080554
 20
536.5256258422047
 10
160.8327135594329
 20
476.5256258422047
 10
230.114745862188
 20
476.5256258422046
 10
264.7557620135656
 20
536.5256258422047
 10
230.1147458621881
 20
596.5256258422046
  0
LWPOLYLINE
  5
9F
330
1F
100
AcDbEntity
  8
0
  6
Continuous
 62
    18
420
        0
370
    25
100
AcDbPolyline
 90
        7
 70
     1
 43
0.0
 10
171.8023686654326
 20
495.5256258273035
 10
219.1450907561883
 20
495.5256258273034
 10
242.8164518015662
 20
536.5256258422046
 10
219.1450907561884
 20
577.5256258571058
 10
171.8023686654327
 20
577.5256258571059
 10
148.1310076200548
 20
536.5256258422047
 10
171.8023686654326
 20
495.5256258273035
  0
SPLINE
  5
A0
330
1F
100
AcDbEntity
  8
0
  6
Continuous
 62
    18
420
        0
370
    25
100
AcDbSpline
210
0.0
220
0.0
230
1.0
 70
    11
 71
     3
 72
    17
 73
    13
 74
     0
 42
0.000000001
 43
0.0
 40
0.0
 40
0.0
 40
0.0
 40
0.0
 40
1.0
 40
1.0
 40
1.0
 40
2.0
 40
2.0
 40
2.0
 40
3.0
 40
3.0
 40
3.0
 40
4.0
 40
4.0
 40
4.0
 40
4.0
 10
251.7557620135655
 20
532.2256258422046
 30
0.0
 10
254.1289966188897
 20
532.2256258422046
 30
0.0
 10
256.0557620135656
 20
534.1523912368805
 30
0.0
 10
256.0557620135656
 20
536.5256258422047
 30
0.0
 10
256.0557620135656
 20
538.8988604475289
 30
0.0
 10
254.1289966188897
 20
540.8256258422047
 30
0.0
 10
251.7557620135655
 20
540.8256258422047
 30
0.0
 10
249.3825274082414
 20
540.8256258422047
 30
0.0
 10
247.4557620135655
 20
538.8988604475289
 30
0.0
 10
247.4557620135655
 20
536.5256258422047
 30
0.0
 10
247.4557620135655
 20
534.1523912368805
 30
0.0
 10
249.3825274082414
 20
532.2256258422046
 30
0.0
 10
251.7557620135655
 20
532.2256258422046
 30
0.0
  0
SPLINE
  5
A1
330
1F
100
AcDbEntity
  8
0
  6
Continuous
 62
    18
420
        0
370
    25
100
AcDbSpline
210
0.0
220
0.0
230
1.0
 70
    11
 71
     3
 72
    17
 73
    13
 74
     0
 42
0.000000001
 43
0.0
 40
0.0
 40
0.0
 40
0.0
 40
0.0
 40
1.0
 40
1.0
 40
1.0
 40
2.0
 40
2.0
 40
2.0
 40
3.0
 40
3.0
 40
3.0
 40
4.0
 40
4.0
 40
4.0
 40
4.0
 10
139.1916974080554
 20
532.2256258422046
 30
0.0
 10
141.5649320133795
 20
532.2256258422046
 30
0.0
 10
143.4916974080554
 20
534.1523912368805
 30
0.0
 10
143.4916974080554
 20
536.5256258422047
 30
0.0
 10
143.4916974080554
 20
538.8988604475289
 30
0.0
 10
141.5649320133795
 20
540.8256258422047
 30
0.0
 10
139.1916974080554
 20
540.8256258422047
 30
0.0
 10
136.8184628027311
 20
540.8256258422047
 30
0.0
 10
134.8916974080553
 20
538.8988604475289
 30
0.0
 10
134.8916974080553
 20
536.5256258422047
 30
0.0
 10
134.8916974080553
 20
534.1523912368805
 30
0.0
 10
136.8184628027311
 20
532.2256258422046
 30
0.0
 10
139.1916974080554
 20
532.2256258422046
 30
0.0
  0
LWPOLYLINE
  5
A2
330
1F
100
AcDbEntity
  8
0
  6
Continuous
 62
    18
420
        0
370
    25
100
AcDbPolyline
 90
        7
 70
     1
 43
0.0
 10
448.219827018946
 20
596.5256258422048
 10
378.9377947161909
 20
596.5256258422048
 10
344.2967785648133
 20
536.5256258422048
 10
378.9377947161909
 20
476.5256258422048
 10
448.219827018946
 20
476.5256258422048
 10
482.8608431703236
 20
536.5256258422048
 10
448.219827018946
 20
596.5256258422048
  0
LWPOLYLINE
  5
A3
330
1F
100
AcDbEntity
  8
0
  6
Continuous
 62
    18
420
        0
370
    25
100
AcDbPolyline
 90
        7
 70
     1
 43
0.0
 10
389.9074498221905
 20
495.5256258273037
 10
437.2501719129463
 20
495.5256258273036
 10
460.9215329583242
 20
536.5256258422048
 10
437.2501719129464
 20
577.525625857106
 10
389.9074498221906
 20
577.525625857106
 10
366.2360887768127
 20
536.5256258422048
 10
389.9074498221905
 20
495.5256258273037
  0
SPLINE
  5
A4
330
1F
100
AcDbEntity
  8
0
  6
Continuous
 62
    18
420
        0
370
    25
100
AcDbSpline
210
0.0
220
0.0
230
1.0
 70
    11
 71
     3
 72
    17
 73
    13
 74
     0
 42
0.000000001
 43
0.0
 40
0.0
 40
0.0
 40
0.0
 40
0.0
 40
1.0
 40
1.0
 40
1.0
 40
2.0
 40
2.0
 40
2.0
 40
3.0
 40
3.0
 40
3.0
 40
4.0
 40
4.0
 40
4.0
 40
4.0
 10
469.8608431703236
 20
532.2256258422049
 30
0.0
 10
472.2340777756477
 20
532.2256258422049
 30
0.0
 10
474.1608431703236
 20
534.1523912368807
 30
0.0
 10
474.1608431703236
 20
536.5256258422048
 30
0.0
 10
474.1608431703236
 20
538.898860447529
 30
0.0
 10
472.2340777756477
 20
540.8256258422049
 30
0.0
 10
469.8608431703236
 20
540.8256258422049
 30
0.0
 10
467.4876085649993
 20
540.8256258422049
 30
0.0
 10
465.5608431703235
 20
538.898860447529
 30
0.0
 10
465.5608431703235
 20
536.5256258422048
 30
0.0
 10
465.5608431703235
 20
534.1523912368807
 30
0.0
 10
467.4876085649993
 20
532.2256258422049
 30
0.0
 10
469.8608431703236
 20
532.2256258422049
 30
0.0
  0
SPLINE
  5
A5
330
1F
100
AcDbEntity
  8
0
  6
Continuous
 62
    18
420
        0
370
    25
100
AcDbSpline
210
0.0
220
0.0
230
1.0
 70
    11
 71
     3
 72
    17
 73
    13
 74
     0
 42
0.000000001
 43
0.0
 40
0.0
 40
0.0
 40
0.0
 40
0.0
 40
1.0
 40
1.0
 40
1.0
 40
2.0
 40
2.0
 40
2.0
 40
3.0
 40
3.0
 40
3.0
 40
4.0
 40
4.0
 40
4.0
 40
4.0
 10
357.2967785648133
 20
532.2256258422049
 30
0.0
 10
359.6700131701376
 20
532.2256258422049
 30
0.0
 10
361.5967785648133
 20
534.1523912368807
 30
0.0
 10
361.5967785648133
 20
536.5256258422048
 30
0.0
 10
361.5967785648133
 20
538.898860447529
 30
0.0
 10
359.6700131701376
 20
540.8256258422049
 30
0.0
 10
357.2967785648133
 20
540.8256258422049
 30
0.0
 10
354.9235439594891
 20
540.8256258422049
 30
0.0
 10
352.9967785648134
 20
538.898860447529
 30
0.0
 10
352.9967785648134
 20
536.5256258422048
 30
0.0
 10
352.9967785648134
 20
534.1523912368807
 30
0.0
 10
354.9235439594891
 20
532.2256258422049
 30
0.0
 10
357.2967785648133
 20
532.2256258422049
 30
0.0
  0
LWPOLYLINE
  5
A6
330
1F
100
AcDbEntity
  8
0
  6
Continuous
 62
    18
420
        0
370
    25
100
AcDbPolyline
 90
        7
 70
     1
 43
0.0
 10
230.1147458621881
 20
730.6570323027561
 10
160.832713559433
 20
730.6570323027562
 10
126.1916974080554
 20
670.6570323027562
 10
160.8327135594329
 20
610.6570323027561
 10
230.114745862188
 20
610.6570323027561
 10
264.7557620135656
 20
670.6570323027561
 10
230.1147458621881
 20
730.6570323027561
  0
LWPOLYLINE
  5
A7
330
1F
100
AcDbEntity
  8
0
  6
Continuous
 62
    18
420
        0
370
    25
100
AcDbPolyline
 90
        7
 70
     1
 43
0.0
 10
171.8023686654326
 20
629.6570322878549
 10
219.1450907561883
 20
629.6570322878549
 10
242.8164518015662
 20
670.6570323027561
 10
219.1450907561884
 20
711.6570323176572
 10
171.8023686654327
 20
711.6570323176574
 10
148.1310076200548
 20
670.6570323027562
 10
171.8023686654326
 20
629.6570322878549
  0
SPLINE
  5
A8
330
1F
100
AcDbEntity
  8
0
  6
Continuous
 62
    18
420
        0
370
    25
100
AcDbSpline
210
0.0
220
0.0
230
1.0
 70
    11
 71
     3
 72
    17
 73
    13
 74
     0
 42
0.000000001
 43
0.0
 40
0.0
 40
0.0
 40
0.0
 40
0.0
 40
1.0
 40
1.0
 40
1.0
 40
2.0
 40
2.0
 40
2.0
 40
3.0
 40
3.0
 40
3.0
 40
4.0
 40
4.0
 40
4.0
 40
4.0
 10
251.7557620135655
 20
666.3570323027561
 30
0.0
 10
254.1289966188897
 20
666.3570323027561
 30
0.0
 10
256.0557620135656
 20
668.283797697432
 30
0.0
 10
256.0557620135656
 20
670.6570323027562
 30
0.0
 10
256.0557620135656
 20
673.0302669080804
 30
0.0
 10
254.1289966188897
 20
674.9570323027561
 30
0.0
 10
251.7557620135655
 20
674.9570323027561
 30
0.0
 10
249.3825274082414
 20
674.9570323027561
 30
0.0
 10
247.4557620135655
 20
673.0302669080804
 30
0.0
 10
247.4557620135655
 20
670.6570323027562
 30
0.0
 10
247.4557620135655
 20
668.283797697432
 30
0.0
 10
249.3825274082414
 20
666.3570323027561
 30
0.0
 10
251.7557620135655
 20
666.3570323027561
 30
0.0
  0
SPLINE
  5
A9
330
1F
100
AcDbEntity
  8
0
  6
Continuous
 62
    18
420
        0
370
    25
100
AcDbSpline
210
0.0
220
0.0
230
1.0
 70
    11
 71
     3
 72
    17
 73
    13
 74
     0
 42
0.000000001
 43
0.0
 40
0.0
 40
0.0
 40
0.0
 40
0.0
 40
1.0
 40
1.0
 40
1.0
 40
2.0
 40
2.0
 40
2.0
 40
3.0
 40
3.0
 40
3.0
 40
4.0
 40
4.0
 40
4.0
 40
4.0
 10
139.1916974080554
 20
666.3570323027561
 30
0.0
 10
141.5649320133795
 20
666.3570323027561
 30
0.0
 10
143.4916974080554
 20
668.283797697432
 30
0.0
 10
143.4916974080554
 20
670.6570323027562
 30
0.0
 10
143.4916974080554
 20
673.0302669080804
 30
0.0
 10
141.5649320133795
 20
674.9570323027561
 30
0.0
 10
139.1916974080554
 20
674.9570323027561
 30
0.0
 10
136.8184628027311
 20
674.9570323027561
 30
0.0
 10
134.8916974080553
 20
673.0302669080804
 30
0.0
 10
134.8916974080553
 20
670.6570323027562
 30
0.0
 10
134.8916974080553
 20
668.283797697432
 30
0.0
 10
136.8184628027311
 20
666.3570323027561
 30
0.0
 10
139.1916974080554
 20
666.3570323027561
 30
0.0
  0
LWPOLYLINE
  5
AA
330
1F
100
AcDbEntity
  8
0
  6
Continuous
 62
    18
420
        0
370
    25
100
AcDbPolyline
 90
        7
 70
     1
 43
0.0
 10
448.219827018946
 20
730.6570323027563
 10
378.9377947161909
 20
730.6570323027563
 10
344.2967785648133
 20
670.6570323027563
 10
378.9377947161909
 20
610.6570323027563
 10
448.219827018946
 20
610.6570323027562
 10
482.8608431703236
 20
670.6570323027563
 10
448.219827018946
 20
730.6570323027563
  0
LWPOLYLINE
  5
AB
330
1F
100
AcDbEntity
  8
0
  6
Continuous
 62
    18
420
        0
370
    25
100
AcDbPolyline
 90
        7
 70
     1
 43
0.0
 10
389.9074498221905
 20
629.6570322878551
 10
437.2501719129463
 20
629.657032287855
 10
460.9215329583242
 20
670.6570323027562
 10
437.2501719129464
 20
711.6570323176575
 10
389.9074498221906
 20
711.6570323176575
 10
366.2360887768127
 20
670.6570323027563
 10
389.9074498221905
 20
629.6570322878551
  0
SPLINE
  5
AC
330
1F
100
AcDbEntity
  8
0
  6
Continuous
 62
    18
420
        0
370
    25
100
AcDbSpline
210
0.0
220
0.0
230
1.0
 70
    11
 71
     3
 72
    17
 73
    13
 74
     0
 42
0.000000001
 43
0.0
 40
0.0
 40
0.0
 40
0.0
 40
0.0
 40
1.0
 40
1.0
 40
1.0
 40
2.0
 40
2.0
 40
2.0
 40
3.0
 40
3.0
 40
3.0
 40
4.0
 40
4.0
 40
4.0
 40
4.0
 10
469.8608431703236
 20
666.3570323027564
 30
0.0
 10
472.2340777756477
 20
666.3570323027564
 30
0.0
 10
474.1608431703236
 20
668.2837976974321
 30
0.0
 10
474.1608431703236
 20
670.6570323027563
 30
0.0
 10
474.1608431703236
 20
673.0302669080805
 30
0.0
 10
472.2340777756477
 20
674.9570323027563
 30
0.0
 10
469.8608431703236
 20
674.9570323027563
 30
0.0
 10
467.4876085649993
 20
674.9570323027563
 30
0.0
 10
465.5608431703235
 20
673.0302669080805
 30
0.0
 10
465.5608431703235
 20
670.6570323027563
 30
0.0
 10
465.5608431703235
 20
668.2837976974321
 30
0.0
 10
467.4876085649993
 20
666.3570323027564
 30
0.0
 10
469.8608431703236
 20
666.3570323027564
 30
0.0
  0
SPLINE
  5
AD
330
1F
100
AcDbEntity
  8
0
  6
Continuous
 62
    18
420
        0
370
    25
100
AcDbSpline
210
0.0
220
0.0
230
1.0
 70
    11
 71
     3
 72
    17
 73
    13
 74
     0
 42
0.000000001
 43
0.0
 40
0.0
 40
0.0
 40
0.0
 40
0.0
 40
1.0
 40
1.0
 40
1.0
 40
2.0
 40
2.0
 40
2.0
 40
3.0
 40
3.0
 40
3.0
 40
4.0
 40
4.0
 40
4.0
 40
4.0
 10
357.2967785648133
 20
666.3570323027564
 30
0.0
 10
359.6700131701376
 20
666.3570323027564
 30
0.0
 10
361.5967785648133
 20
668.2837976974321
 30
0.0
 10
361.5967785648133
 20
670.6570323027563
 30
0.0
 10
361.5967785648133
 20
673.0302669080805
 30
0.0
 10
359.6700131701376
 20
674.9570323027563
 30
0.0
 10
357.2967785648133
 20
674.9570323027563
 30
0.0
 10
354.9235439594891
 20
674.9570323027563
 30
0.0
 10
352.9967785648134
 20
673.0302669080805
 30
0.0
 10
352.9967785648134
 20
670.6570323027563
 30
0.0
 10
352.9967785648134
 20
668.2837976974321
 30
0.0
 10
354.9235439594891
 20
666.3570323027564
 30
0.0
 10
357.2967785648133
 20
666.3570323027564
 30
0.0
  0
VIEWPORT
  5
B2
330
AE
100
AcDbEntity
 67
     1
  8
0
100
AcDbViewport
 10
128.5
 20
97.5
 30
0.0
 40
314.226
 41
222.18
 68
     1
 69
     1
 12
250.0
 22
375.0
 13
0.0
 23
0.0
 14
10.0
 24
10.0
 15
10.0
 25
10.0
 16
0.0
 26
0.0
 36
1.0
 17
0.0
 27
0.0
 37
0.0
 42
50.0
 43
0.0
 44
0.0
 45
222.18
 50
0.0
 51
0.0
 72
   100
 90
   557152
  1

281
     0
 71
     1
 74
     0
110
0.0
120
0.0
130
0.0
111
1.0
121
0.0
131
0.0
112
0.0
122
1.0
132
0.0
 79
     0
146
0.0
170
     0
 61
     5
348
2F
292
     1
282
     1
141
0.0
142
0.0
 63
   256
361
B3
  0
VIEWPORT
  5
B4
330
AE
100
AcDbEntity
 67
     1
  8
0
100
AcDbViewport
 10
250.0
 20
375.0
 30
0.0
 40
500.0000000000001
 41
750.0
 68
     2
 69
     2
 12
250.0
 22
375.0
 13
0.0
 23
0.0
 14
10.0
 24
10.0
 15
10.0
 25
10.0
 16
0.0
 26
0.0
 36
1.0
 17
0.0
 27
0.0
 37
0.0
 42
50.0
 43
0.0
 44
0.0
 45
750.0
 50
0.0
 51
0.0
 72
   100
 90
   557152
  1

281
     0
 71
     1
 74
     0
110
0.0
120
0.0
130
0.0
111
1.0
121
0.0
131
0.0
112
0.0
122
1.0
132
0.0
 79
     0
146
0.0
170
     0
 61
     5
348
2F
292
     1
282
     1
141
0.0
142
0.0
 63
   256
361
B5
  0
ENDSEC
  0
SECTION
  2
OBJECTS
  0
DICTIONARY
  5
C
330
0
100
AcDbDictionary
281
     1
  3
ACAD_DETAILVIEWSTYLE
350
BD
  3
ACAD_GROUP
350
D
  3
ACAD_LAYOUT
350
1A
  3
ACAD_MATERIAL
350
43
  3
ACAD_MLEADERSTYLE
350
5B
  3
ACAD_MLINESTYLE
350
17
  3
ACAD_PLOTSETTINGS
350
19
  3
ACAD_PLOTSTYLENAME
350
E
  3
ACAD_SCALELIST
350
47
  3
ACAD_SECTIONVIEWSTYLE
350
BE
  3
ACAD_TABLESTYLE
350
59
  3
ACAD_VISUALSTYLE
350
2A
  3
ACDB_RECOMPOSE_DATA
350
BA
  3
AcDbVariableDictionary
350
B6
  0
SUN
  5
5D
330
29
100
AcDbSun
 90
        1
290
     0
 63
     7
421
 16777215
 40
1.0
291
     1
 91
  2455826
 92
 54000000
292
     0
 70
     2
 71
   256
280
     1
  0
SUN
  5
B3
330
B2
100
AcDbSun
 90
        1
290
     0
 63
     7
421
 16777215
 40
1.0
291
     1
 91
  2455826
 92
 54000000
292
     0
 70
     2
 71
   256
280
     1
  0
SUN
  5
B5
330
B4
100
AcDbSun
 90
        1
290
     0
 63
     7
421
 16777215
 40
1.0
291
     1
 91
  2455826
 92
 54000000
292
     0
 70
     2
 71
   256
280
     1
  0
DICTIONARY
  5
BD
102
{ACAD_REACTORS
330
C
102
}
330
C
100
AcDbDictionary
281
     1
  0
DICTIONARY
  5
D
102
{ACAD_REACTORS
330
C
102
}
330
C
100
AcDbDictionary
281
     1
  0
DICTIONARY
  5
1A
102
{ACAD_REACTORS
330
C
102
}
330
C
100
AcDbDictionary
281
     1
  3
Layout1
350
AF
  3
Model
350
22
  0
DICTIONARY
  5
43
102
{ACAD_REACTORS
330
C
102
}
330
C
100
AcDbDictionary
281
     1
  3
ByBlock
350
45
  3
ByLayer
350
44
  3
Global
350
46
  0
DICTIONARY
  5
5B
102
{ACAD_REACTORS
330
C
102
}
330
C
100
AcDbDictionary
281
     1
  3
Standard
350
5C
  0
DICTIONARY
  5
17
102
{ACAD_REACTORS
330
C
102
}
330
C
100
AcDbDictionary
281
     1
  3
Standard
350
18
  0
DICTIONARY
  5
19
102
{ACAD_REACTORS
330
C
102
}
330
C
100
AcDbDictionary
281
     1
  0
ACDBDICTIONARYWDFLT
  5
E
102
{ACAD_REACTORS
330
C
102
}
330
C
100
AcDbDictionary
281
     1
  3
Normal
350
F
100
AcDbDictionaryWithDefault
340
F
  0
DICTIONARY
  5
47
102
{ACAD_REACTORS
330
C
102
}
330
C
100
AcDbDictionary
281
     1
  3
A0
350
48
  3
A1
350
49
  3
A2
350
4A
  3
A3
350
4B
  3
A4
350
4C
  3
A5
350
4D
  3
A6
350
4E
  3
A7
350
4F
  3
A8
350
50
  3
A9
350
51
  3
B0
350
52
  3
B1
350
53
  3
B2
350
54
  3
B3
350
55
  3
B4
350
56
  3
B5
350
57
  3
B6
350
58
  0
DICTIONARY
  5
BE
102
{ACAD_REACTORS
330
C
102
}
330
C
100
AcDbDictionary
281
     1
  0
DICTIONARY
  5
59
102
{ACAD_REACTORS
330
C
102
}
330
C
100
AcDbDictionary
281
     1
  3
Standard
350
5A
  0
DICTIONARY
  5
2A
102
{ACAD_REACTORS
330
C
102
}
330
C
100
AcDbDictionary
281
     1
  3
2dWireframe
350
2F
  3
Basic
350
32
  3
Brighten
350
36
  3
ColorChange
350
3A
  3
Conceptual
350
34
  3
Dim
350
35
  3
EdgeColorOff
350
3D
  3
Facepattern
350
39
  3
Flat
350
2B
  3
FlatWithEdges
350
2C
  3
Gouraud
350
2D
  3
GouraudWithEdges
350
2E
  3
Hidden
350
31
  3
JitterOff
350
3B
  3
Linepattern
350
38
  3
OverhangOff
350
3C
  3
Realistic
350
33
  3
Shaded
350
42
  3
Shaded with edges
350
41
  3
Shades of Gray
350
3E
  3
Sketchy
350
3F
  3
Thicken
350
37
  3
Wireframe
350
30
  3
X-Ray
350
40
  0
XRECORD
  5
BA
102
{ACAD_REACTORS
330
C
102
}
330
C
100
AcDbXrecord
280
     1
 90
        1
330
5A
  0
DICTIONARY
  5
B6
102
{ACAD_REACTORS
330
C
102
}
330
C
100
AcDbDictionary
281
     1
  3
CANNOSCALE
350
B7
  3
CENTEREXE
350
BF
  3
CENTERLTYPEFILE
350
C0
  3
CMLEADERSTYLE
350
BC
  3
CTABLESTYLE
350
BB
  0
LAYOUT
  5
AF
102
{ACAD_REACTORS
330
1A
102
}
330
1A
100
AcDbPlotSettings
  1

  2
none_device
  4
ISO_A4_(210.00_x_297.00_MM)
  6

 40
0.0
 41
0.0
 42
0.0
 43
0.0
 44
500.0000000000001
 45
750.0
 46
0.0
 47
0.0
 48
0.0
 49
0.0
140
0.0
141
0.0
142
1.0
143
1.0
 70
   688
 72
     1
 73
     0
 74
     5
  7

 75
    16
 76
     0
 77
     2
 78
   300
147
1.0
148
0.0
149
0.0
100
AcDbLayout
  1
Layout1
 70
     1
 71
     1
 10
-20.0
 20
-7.5
 11
277.0
 21
202.5
 12
0.0
 22
0.0
 32
0.0
 14
500.0000000000001
 24
750.0
 34
0.0
 15
0.0
 25
0.0
 35
0.0
146
0.0
 13
0.0
 23
0.0
 33
0.0
 16
1.0
 26
0.0
 36
0.0
 17
0.0
 27
1.0
 37
0.0
 76
     0
330
AE
331
B2
  0
LAYOUT
  5
22
102
{ACAD_REACTORS
330
1A
102
}
330
1A
100
AcDbPlotSettings
  1

  2
none_device
  4
Letter_(8.50_x_11.00_Inches)
  6

 40
6.35
 41
6.35
 42
6.35000508
 43
6.35000508
 44
215.9
 45
279.4
 46
0.0
 47
0.0
 48
0.0
 49
0.0
140
0.0
141
0.0
142
1.0
143
1.0
 70
  1712
 72
     1
 73
     0
 74
     0
  7

 75
     0
 76
     0
 77
     2
 78
   300
147
1.0
148
0.0
149
0.0
100
AcDbLayout
  1
Model
 70
     1
 71
     0
 10
0.0
 20
0.0
 11
420.0
 21
297.0
 12
0.0
 22
0.0
 32
0.0
 14
1.000000000000000E+20
 24
1.000000000000000E+20
 34
1.000000000000000E+20
 15
-1.000000000000000E+20
 25
-1.000000000000000E+20
 35
-1.000000000000000E+20
146
0.0
 13
0.0
 23
0.0
 33
0.0
 16
1.0
 26
0.0
 36
0.0
 17
0.0
 27
1.0
 37
0.0
 76
     0
330
1F
331
29
  0
MATERIAL
  5
45
102
{ACAD_REACTORS
330
43
102
}
330
43
100
AcDbMaterial
  1
ByBlock
 72
     1
 94
      127
  0
MATERIAL
  5
44
102
{ACAD_REACTORS
330
43
102
}
330
43
100
AcDbMaterial
  1
ByLayer
 72
     1
 94
      127
  0
MATERIAL
  5
46
102
{ACAD_REACTORS
330
43
102
}
330
43
100
AcDbMaterial
  1
Global
 72
     1
 94
      127
  0
MLEADERSTYLE
  5
5C
102
{ACAD_REACTORS
330
5B
102
}
330
5B
100
AcDbMLeaderStyle
179
     2
170
     2
171
     1
172
     0
 90
        2
 40
0.0
 41
0.0
173
     1
 91
-1056964608
340
14
 92
       -2
290
     1
 42
2.0
291
     1
 43
8.0
  3
Standard
341
0
 44
4.0
300

342
11
174
     1
178
     6
175
     1
176
     0
 93
-1056964608
 45
4.0
292
     0
297
     0
 46
4.0
343
0
 94
-1056964608
 47
1.0
 49
1.0
140
1.0
293
     1
141
0.0
294
     1
177
     0
142
1.0
295
     0
296
     0
143
3.75
271
     0
272
     9
273
     9
298
     0
  0
MLINESTYLE
  5
18
102
{ACAD_REACTORS
330
17
102
}
330
17
100
AcDbMlineStyle
  2
Standard
 70
     0
  3

 62
   256
 51
90.0
 52
90.0
 71
     2
 49
0.5
 62
   256
  6
BYLAYER
 49
-0.5
 62
   256
  6
BYLAYER
  0
ACDBPLACEHOLDER
  5
F
102
{ACAD_REACTORS
330
E
102
}
330
E
  0
SCALE
  5
48
102
{ACAD_REACTORS
330
47
102
}
330
47
100
AcDbScale
 70
     0
300
1:1
140
1.0
141
1.0
290
     1
  0
SCALE
  5
49
102
{ACAD_REACTORS
330
47
102
}
330
47
100
AcDbScale
 70
     0
300
1:2
140
1.0
141
2.0
290
     0
  0
SCALE
  5
4A
102
{ACAD_REACTORS
330
47
102
}
330
47
100
AcDbScale
 70
     0
300
1:4
140
1.0
141
4.0
290
     0
  0
SCALE
  5
4B
102
{ACAD_REACTORS
330
47
102
}
330
47
100
AcDbScale
 70
     0
300
1:5
140
1.0
141
5.0
290
     0
  0
SCALE
  5
4C
102
{ACAD_REACTORS
330
47
102
}
330
47
100
AcDbScale
 70
     0
300
1:8
140
1.0
141
8.0
290
     0
  0
SCALE
  5
4D
102
{ACAD_REACTORS
330
47
102
}
330
47
100
AcDbScale
 70
     0
300
1:10
140
1.0
141
10.0
290
     0
  0
SCALE
  5
4E
102
{ACAD_REACTORS
330
47
102
}
330
47
100
AcDbScale
 70
     0
300
1:16
140
1.0
141
16.0
290
     0
  0
SCALE
  5
4F
102
{ACAD_REACTORS
330
47
102
}
330
47
100
AcDbScale
 70
     0
300
1:20
140
1.0
141
20.0
290
     0
  0
SCALE
  5
50
102
{ACAD_REACTORS
330
47
102
}
330
47
100
AcDbScale
 70
     0
300
1:30
140
1.0
141
30.0
290
     0
  0
SCALE
  5
51
102
{ACAD_REACTORS
330
47
102
}
330
47
100
AcDbScale
 70
     0
300
1:40
140
1.0
141
40.0
290
     0
  0
SCALE
  5
52
102
{ACAD_REACTORS
330
47
102
}
330
47
100
AcDbScale
 70
     0
300
1:50
140
1.0
141
50.0
290
     0
  0
SCALE
  5
53
102
{ACAD_REACTORS
330
47
102
}
330
47
100
AcDbScale
 70
     0
300
1:100
140
1.0
141
100.0
290
     0
  0
SCALE
  5
54
102
{ACAD_REACTORS
330
47
102
}
330
47
100
AcDbScale
 70
     0
300
2:1
140
2.0
141
1.0
290
     0
  0
SCALE
  5
55
102
{ACAD_REACTORS
330
47
102
}
330
47
100
AcDbScale
 70
     0
300
4:1
140
4.0
141
1.0
290
     0
  0
SCALE
  5
56
102
{ACAD_REACTORS
330
47
102
}
330
47
100
AcDbScale
 70
     0
300
8:1
140
8.0
141
1.0
290
     0
  0
SCALE
  5
57
102
{ACAD_REACTORS
330
47
102
}
330
47
100
AcDbScale
 70
     0
300
10:1
140
10.0
141
1.0
290
     0
  0
SCALE
  5
58
102
{ACAD_REACTORS
330
47
102
}
330
47
100
AcDbScale
 70
     0
300
100:1
140
100.0
141
1.0
290
     0
  0
TABLESTYLE
  5
5A
102
{ACAD_REACTORS
330
59
102
}
102
{ACAD_XDICTIONARY
360
B8
102
}
330
59
100
AcDbTableStyle
  3
Standard
 70
     0
 71
     0
 40
0.06
 41
0.06
280
     0
281
     0
  7
Standard
140
4.5
170
     2
 62
     0
 63
   257
283
     0
 90
        4
 91
        0
  1

274
    -2
284
     1
 64
     0
275
    -2
285
     1
 65
     0
276
    -2
286
     1
 66
     0
277
    -2
287
     1
 67
     0
278
    -2
288
     1
 68
     0
279
    -2
289
     1
 69
     0
  7
Standard
140
6.0
170
     5
 62
     0
 63
   257
283
     0
 90
        4
 91
        0
  1

274
    -2
284
     1
 64
     0
275
    -2
285
     1
 65
     0
276
    -2
286
     1
 66
     0
277
    -2
287
     1
 67
     0
278
    -2
288
     1
 68
     0
279
    -2
289
     1
 69
     0
  7
Standard
140
4.5
170
     5
 62
     0
 63
   257
283
     0
 90
        4
 91
        0
  1

274
    -2
284
     1
 64
     0
275
    -2
285
     1
 65
     0
276
    -2
286
     1
 66
     0
277
    -2
287
     1
 67
     0
278
    -2
288
     1
 68
     0
279
    -2
289
     1
 69
     0
  0
VISUALSTYLE
  5
2F
102
{ACAD_REACTORS
330
2A
102
}
330
2A
100
AcDbVisualStyle
  2
2dWireframe
 70
     4
177
     3
291
     0
 70
    58
 90
        0
176
     1
 90
        2
176
     1
 90
        0
176
     1
 90
        0
176
     1
 40
0.6
176
     1
 40
30.0
176
     1
 62
     7
420
 16777215
176
     1
 90
        1
176
     1
 90
        4
176
     1
 62
     7
176
     1
 62
   257
176
     1
 90
        1
176
     1
 90
        1
176
     1
 40
1.0
176
     1
 90
        0
176
     1
 62
   257
176
     1
 40
1.0
176
     1
 90
        1
176
     1
 90
        6
176
     1
 90
        2
176
     1
 62
     7
176
     1
 90
        5
176
     1
 90
        0
176
     1
 90
        0
176
     1
290
     0
176
     1
 90
        1
176
     1
 40
0.0
176
     1
 90
        0
176
     1
290
     1
176
     1
290
     1
176
     1
290
     0
176
     1
290
     0
176
     1
290
     0
176
     1
290
     0
176
     1
290
     0
176
     1
290
     0
176
     1
290
     0
176
     1
 90
       50
176
     1
 40
0.0
176
     1
 40
1.0
176
     1
 90
        0
176
     1
 62
    18
420
        0
176
     1
 90
       50
176
     1
 90
        3
176
     1
 62
     5
420
      255
176
     1
290
     0
176
     1
 90
       50
176
     1
 90
       50
176
     1
 90
       50
176
     1
290
     0
176
     1
 90
       50
176
     1
 62
   256
176
     0
 40
1.0
176
     0
 90
        2
176
     1
  1
strokes_ogs.tif
176
     1
290
     0
176
     1
 40
1.0
176
     1
 40
1.0
176
     1
  0
VISUALSTYLE
  5
32
102
{ACAD_REACTORS
330
2A
102
}
330
2A
100
AcDbVisualStyle
  2
Basic
 70
     7
177
     3
291
     1
 70
    58
 90
        1
176
     1
 90
        0
176
     1
 90
        1
176
     1
 90
        0
176
     1
 40
0.6
176
     1
 40
30.0
176
     1
 62
     7
420
 16777215
176
     1
 90
        0
176
     1
 90
        4
176
     1
 62
     7
176
     1
 62
   257
176
     1
 90
        1
176
     1
 90
        1
176
     1
 40
1.0
176
     1
 90
        8
176
     1
 62
     7
176
     1
 40
1.0
176
     1
 90
        1
176
     1
 90
        6
176
     1
 90
        2
176
     1
 62
     7
176
     1
 90
        5
176
     1
 90
        0
176
     1
 90
        0
176
     1
290
     0
176
     1
 90
        1
176
     1
 40
0.0
176
     1
 90
        0
176
     1
290
     0
176
     1
290
     1
176
     1
290
     1
176
     1
290
     0
176
     1
290
     0
176
     1
290
     0
176
     1
290
     0
176
     1
290
     0
176
     1
290
     0
176
     1
 90
       50
176
     1
 40
0.0
176
     1
 40
1.0
176
     1
 90
        0
176
     1
 62
    18
420
        0
176
     1
 90
       50
176
     1
 90
        3
176
     1
 62
     5
420
      255
176
     1
290
     0
176
     1
 90
       50
176
     1
 90
       50
176
     1
 90
       50
176
     1
290
     0
176
     1
 90
       50
176
     1
 62
   256
176
     0
 40
1.0
176
     0
 90
        2
176
     1
  1
strokes_ogs.tif
176
     1
290
     0
176
     1
 40
1.0
176
     1
 40
1.0
176
     1
  0
VISUALSTYLE
  5
36
102
{ACAD_REACTORS
330
2A
102
}
330
2A
100
AcDbVisualStyle
  2
Brighten
 70
    12
177
     3
291
     1
 70
    58
 90
        2
176
     1
 90
        2
176
     1
 90
        0
176
     1
 90
        0
176
     1
 40
0.6
176
     1
 40
30.0
176
     1
 62
     7
420
 16777215
176
     1
 90
        1
176
     1
 90
        4
176
     1
 62
     7
176
     1
 62
   257
176
     1
 90
        1
176
     1
 90
        1
176
     1
 40
1.0
176
     1
 90
        8
176
     1
 62
     7
176
     1
 40
1.0
176
     1
 90
        1
176
     1
 90
        6
176
     1
 90
        2
176
     1
 62
     7
176
     1
 90
        5
176
     1
 90
        0
176
     1
 90
        0
176
     1
290
     0
176
     1
 90
        1
176
     1
 40
50.0
176
     1
 90
        0
176
     1
290
     0
176
     1
290
     1
176
     1
290
     1
176
     1
290
     0
176
     1
290
     0
176
     1
290
     0
176
     1
290
     0
176
     1
290
     0
176
     1
290
     0
176
     1
 90
       50
176
     1
 40
0.0
176
     1
 40
1.0
176
     1
 90
        0
176
     1
 62
    18
420
        0
176
     1
 90
       50
176
     1
 90
        3
176
     1
 62
     5
420
      255
176
     1
290
     0
176
     1
 90
       50
176
     1
 90
       50
176
     1
 90
       50
176
     1
290
     0
176
     1
 90
       50
176
     1
 62
   256
176
     0
 40
1.0
176
     0
 90
        2
176
     1
  1
strokes_ogs.tif
176
     1
290
     0
176
     1
 40
1.0
176
     1
 40
1.0
176
     1
  0
VISUALSTYLE
  5
3A
102
{ACAD_REACTORS
330
2A
102
}
330
2A
100
AcDbVisualStyle
  2
ColorChange
 70
    16
177
     3
291
     1
 70
    58
 90
        2
176
     1
 90
        2
176
     1
 90
        3
176
     1
 90
        0
176
     1
 40
0.6
176
     1
 40
30.0
176
     1
 62
     8
420
  8421504
176
     1
 90
        1
176
     1
 90
        4
176
     1
 62
     7
176
     1
 62
   257
176
     1
 90
        1
176
     1
 90
        1
176
     1
 40
1.0
176
     1
 90
        8
176
     1
 62
     8
420
  8421504
176
     1
 40
1.0
176
     1
 90
        1
176
     1
 90
        6
176
     1
 90
        2
176
     1
 62
     7
176
     1
 90
        5
176
     1
 90
        0
176
     1
 90
        0
176
     1
290
     0
176
     1
 90
        1
176
     1
 40
0.0
176
     1
 90
        0
176
     1
290
     0
176
     1
290
     1
176
     1
290
     1
176
     1
290
     0
176
     1
290
     0
176
     1
290
     0
176
     1
290
     0
176
     1
290
     0
176
     1
290
     0
176
     1
 90
       50
176
     1
 40
0.0
176
     1
 40
1.0
176
     1
 90
        0
176
     1
 62
    18
420
        0
176
     1
 90
       50
176
     1
 90
        3
176
     1
 62
     5
420
      255
176
     1
290
     0
176
     1
 90
       50
176
     1
 90
       50
176
     1
 90
       50
176
     1
290
     0
176
     1
 90
       50
176
     1
 62
   256
176
     0
 40
1.0
176
     0
 90
        2
176
     1
  1
strokes_ogs.tif
176
     1
290
     0
176
     1
 40
1.0
176
     1
 40
1.0
176
     1
  0
VISUALSTYLE
  5
34
102
{ACAD_REACTORS
330
2A
102
}
330
2A
100
AcDbVisualStyle
  2
Conceptual
 70
     9
177
     3
291
     0
 70
    58
 90
        3
176
     1
 90
        2
176
     1
 90
        0
176
     1
 90
        0
176
     1
 40
0.6
176
     1
 40
30.0
176
     1
 62
     7
420
 16777215
176
     1
 90
        2
176
     1
 90
        2
176
     1
 62
     7
176
     1
 62
   257
176
     1
 90
        1
176
     1
 90
        1
176
     1
 40
179.0
176
     1
 90
        8
176
     1
 62
     7
176
     1
 40
1.0
176
     1
 90
        1
176
     1
 90
        6
176
     1
 90
        2
176
     1
 62
     7
176
     1
 90
        3
176
     1
 90
        0
176
     1
 90
        0
176
     1
290
     0
176
     1
 90
        1
176
     1
 40
0.0
176
     1
 90
        0
176
     1
290
     0
176
     1
290
     1
176
     1
290
     1
176
     1
290
     0
176
     1
290
     0
176
     1
290
     0
176
     1
290
     0
176
     1
290
     0
176
     1
290
     0
176
     1
 90
       50
176
     1
 40
0.0
176
     1
 40
1.0
176
     1
 90
        0
176
     1
 62
    18
420
        0
176
     1
 90
       50
176
     1
 90
        3
176
     1
 62
     5
420
      255
176
     1
290
     0
176
     1
 90
       50
176
     1
 90
       50
176
     1
 90
       50
176
     1
290
     0
176
     1
 90
       50
176
     1
 62
   256
176
     0
 40
1.0
176
     0
 90
        2
176
     1
  1
strokes_ogs.tif
176
     1
290
     0
176
     1
 40
1.0
176
     1
 40
1.0
176
     1
  0
VISUALSTYLE
  5
35
102
{ACAD_REACTORS
330
2A
102
}
330
2A
100
AcDbVisualStyle
  2
Dim
 70
    11
177
     3
291
     1
 70
    58
 90
        2
176
     1
 90
        2
176
     1
 90
        0
176
     1
 90
        0
176
     1
 40
0.6
176
     1
 40
30.0
176
     1
 62
     7
420
 16777215
176
     1
 90
        1
176
     1
 90
        4
176
     1
 62
     7
176
     1
 62
   257
176
     1
 90
        1
176
     1
 90
        1
176
     1
 40
1.0
176
     1
 90
        8
176
     1
 62
     7
176
     1
 40
1.0
176
     1
 90
        1
176
     1
 90
        6
176
     1
 90
        2
176
     1
 62
     7
176
     1
 90
        5
176
     1
 90
        0
176
     1
 90
        0
176
     1
290
     0
176
     1
 90
        1
176
     1
 40
-50.0
176
     1
 90
        0
176
     1
290
     0
176
     1
290
     1
176
     1
290
     1
176
     1
290
     0
176
     1
290
     0
176
     1
290
     0
176
     1
290
     0
176
     1
290
     0
176
     1
290
     0
176
     1
 90
       50
176
     1
 40
0.0
176
     1
 40
1.0
176
     1
 90
        0
176
     1
 62
    18
420
        0
176
     1
 90
       50
176
     1
 90
        3
176
     1
 62
     5
420
      255
176
     1
290
     0
176
     1
 90
       50
176
     1
 90
       50
176
     1
 90
       50
176
     1
290
     0
176
     1
 90
       50
176
     1
 62
   256
176
     0
 40
1.0
176
     0
 90
        2
176
     1
  1
strokes_ogs.tif
176
     1
290
     0
176
     1
 40
1.0
176
     1
 40
1.0
176
     1
  0
VISUALSTYLE
  5
3D
102
{ACAD_REACTORS
330
2A
102
}
330
2A
100
AcDbVisualStyle
  2
EdgeColorOff
 70
    22
177
     3
291
     1
 70
    58
 90
        2
176
     0
 90
        2
176
     0
 90
        0
176
     0
 90
        0
176
     0
 40
0.6
176
     0
 40
30.0
176
     0
 62
     7
420
 16777215
176
     0
 90
        1
176
     0
 90
        4
176
     0
 62
     7
176
     0
 62
   257
176
     0
 90
        1
176
     0
 90
        1
176
     0
 40
1.0
176
     0
 90
        8
176
     2
 62
     7
176
     0
 40
1.0
176
     0
 90
        1
176
     0
 90
        6
176
     0
 90
        2
176
     0
 62
     7
176
     0
 90
        5
176
     0
 90
        0
176
     0
 90
        0
176
     0
290
     0
176
     0
 90
        1
176
     0
 40
0.0
176
     0
 90
        0
176
     0
290
     0
176
     0
290
     1
176
     0
290
     1
176
     0
290
     0
176
     0
290
     0
176
     0
290
     0
176
     0
290
     0
176
     0
290
     0
176
     0
290
     0
176
     0
 90
       50
176
     0
 40
0.0
176
     0
 40
1.0
176
     0
 90
        0
176
     0
 62
    18
420
        0
176
     0
 90
       50
176
     0
 90
        3
176
     0
 62
     5
420
      255
176
     0
290
     0
176
     0
 90
       50
176
     0
 90
       50
176
     0
 90
       50
176
     0
290
     0
176
     0
 90
       50
176
     0
 62
   256
176
     0
 40
1.0
176
     0
 90
        2
176
     0
  1
strokes_ogs.tif
176
     0
290
     0
176
     0
 40
1.0
176
     0
 40
1.0
176
     0
  0
VISUALSTYLE
  5
39
102
{ACAD_REACTORS
330
2A
102
}
330
2A
100
AcDbVisualStyle
  2
Facepattern
 70
    15
177
     3
291
     1
 70
    58
 90
        2
176
     1
 90
        2
176
     1
 90
        0
176
     1
 90
        0
176
     1
 40
0.6
176
     1
 40
30.0
176
     1
 62
     7
420
 16777215
176
     1
 90
        1
176
     1
 90
        4
176
     1
 62
     7
176
     1
 62
   257
176
     1
 90
        1
176
     1
 90
        1
176
     1
 40
1.0
176
     1
 90
        8
176
     1
 62
     7
176
     1
 40
1.0
176
     1
 90
        1
176
     1
 90
        6
176
     1
 90
        2
176
     1
 62
     7
176
     1
 90
        5
176
     1
 90
        0
176
     1
 90
        0
176
     1
290
     0
176
     1
 90
        1
176
     1
 40
0.0
176
     1
 90
        0
176
     1
290
     0
176
     1
290
     1
176
     1
290
     1
176
     1
290
     0
176
     1
290
     0
176
     1
290
     0
176
     1
290
     0
176
     1
290
     0
176
     1
290
     0
176
     1
 90
       50
176
     1
 40
0.0
176
     1
 40
1.0
176
     1
 90
        0
176
     1
 62
    18
420
        0
176
     1
 90
       50
176
     1
 90
        3
176
     1
 62
     5
420
      255
176
     1
290
     0
176
     1
 90
       50
176
     1
 90
       50
176
     1
 90
       50
176
     1
290
     0
176
     1
 90
       50
176
     1
 62
   256
176
     0
 40
1.0
176
     0
 90
        2
176
     1
  1
strokes_ogs.tif
176
     1
290
     0
176
     1
 40
1.0
176
     1
 40
1.0
176
     1
  0
VISUALSTYLE
  5
2B
102
{ACAD_REACTORS
330
2A
102
}
330
2A
100
AcDbVisualStyle
  2
Flat
 70
     0
177
     3
291
     1
 70
    58
 90
        2
176
     1
 90
        1
176
     1
 90
        1
176
     1
 90
        2
176
     1
 40
0.6
176
     1
 40
30.0
176
     1
 62
     7
420
 16777215
176
     1
 90
        0
176
     1
 90
        0
176
     1
 62
     7
176
     1
 62
   257
176
     1
 90
        1
176
     1
 90
        1
176
     1
 40
1.0
176
     1
 90
        8
176
     1
 62
     7
176
     1
 40
1.0
176
     1
 90
        1
176
     1
 90
        6
176
     1
 90
        2
176
     1
 62
     7
176
     1
 90
        5
176
     1
 90
        0
176
     1
 90
        0
176
     1
290
     0
176
     1
 90
       13
176
     1
 40
0.0
176
     1
 90
        0
176
     1
290
     0
176
     1
290
     1
176
     1
290
     1
176
     1
290
     0
176
     1
290
     0
176
     1
290
     0
176
     1
290
     0
176
     1
290
     0
176
     1
290
     0
176
     1
 90
       50
176
     1
 40
0.0
176
     1
 40
1.0
176
     1
 90
        0
176
     1
 62
    18
420
        0
176
     1
 90
       50
176
     1
 90
        3
176
     1
 62
     5
420
      255
176
     1
290
     0
176
     1
 90
       50
176
     1
 90
       50
176
     1
 90
       50
176
     1
290
     0
176
     1
 90
       50
176
     1
 62
   256
176
     0
 40
1.0
176
     0
 90
        2
176
     1
  1
strokes_ogs.tif
176
     1
290
     0
176
     1
 40
1.0
176
     1
 40
1.0
176
     1
  0
VISUALSTYLE
  5
2C
102
{ACAD_REACTORS
330
2A
102
}
330
2A
100
AcDbVisualStyle
  2
FlatWithEdges
 70
     1
177
     3
291
     1
 70
    58
 90
        2
176
     1
 90
        1
176
     1
 90
        1
176
     1
 90
        2
176
     1
 40
0.6
176
     1
 40
30.0
176
     1
 62
     7
420
 16777215
176
     1
 90
        1
176
     1
 90
        0
176
     1
 62
     7
176
     1
 62
   257
176
     1
 90
        1
176
     1
 90
        1
176
     1
 40
1.0
176
     1
 90
        0
176
     1
 62
   257
176
     1
 40
1.0
176
     1
 90
        1
176
     1
 90
        6
176
     1
 90
        2
176
     1
 62
     7
176
     1
 90
        5
176
     1
 90
        0
176
     1
 90
        0
176
     1
290
     0
176
     1
 90
       13
176
     1
 40
0.0
176
     1
 90
        0
176
     1
290
     0
176
     1
290
     1
176
     1
290
     1
176
     1
290
     0
176
     1
290
     0
176
     1
290
     0
176
     1
290
     0
176
     1
290
     0
176
     1
290
     0
176
     1
 90
       50
176
     1
 40
0.0
176
     1
 40
1.0
176
     1
 90
        0
176
     1
 62
    18
420
        0
176
     1
 90
       50
176
     1
 90
        3
176
     1
 62
     5
420
      255
176
     1
290
     0
176
     1
 90
       50
176
     1
 90
       50
176
     1
 90
       50
176
     1
290
     0
176
     1
 90
       50
176
     1
 62
   256
176
     0
 40
1.0
176
     0
 90
        2
176
     1
  1
strokes_ogs.tif
176
     1
290
     0
176
     1
 40
1.0
176
     1
 40
1.0
176
     1
  0
VISUALSTYLE
  5
2D
102
{ACAD_REACTORS
330
2A
102
}
330
2A
100
AcDbVisualStyle
  2
Gouraud
 70
     2
177
     3
291
     1
 70
    58
 90
        2
176
     1
 90
        2
176
     1
 90
        1
176
     1
 90
        2
176
     1
 40
0.6
176
     1
 40
30.0
176
     1
 62
     7
420
 16777215
176
     1
 90
        0
176
     1
 90
        0
176
     1
 62
     7
176
     1
 62
   257
176
     1
 90
        1
176
     1
 90
        1
176
     1
 40
1.0
176
     1
 90
        0
176
     1
 62
     7
176
     1
 40
1.0
176
     1
 90
        1
176
     1
 90
        6
176
     1
 90
        2
176
     1
 62
     7
176
     1
 90
        5
176
     1
 90
        0
176
     1
 90
        0
176
     1
290
     0
176
     1
 90
       13
176
     1
 40
0.0
176
     1
 90
        0
176
     1
290
     0
176
     1
290
     1
176
     1
290
     1
176
     1
290
     0
176
     1
290
     0
176
     1
290
     0
176
     1
290
     0
176
     1
290
     0
176
     1
290
     0
176
     1
 90
       50
176
     1
 40
0.0
176
     1
 40
1.0
176
     1
 90
        0
176
     1
 62
    18
420
        0
176
     1
 90
       50
176
     1
 90
        3
176
     1
 62
     5
420
      255
176
     1
290
     0
176
     1
 90
       50
176
     1
 90
       50
176
     1
 90
       50
176
     1
290
     0
176
     1
 90
       50
176
     1
 62
   256
176
     0
 40
1.0
176
     0
 90
        2
176
     1
  1
strokes_ogs.tif
176
     1
290
     0
176
     1
 40
1.0
176
     1
 40
1.0
176
     1
  0
VISUALSTYLE
  5
2E
102
{ACAD_REACTORS
330
2A
102
}
330
2A
100
AcDbVisualStyle
  2
GouraudWithEdges
 70
     3
177
     3
291
     1
 70
    58
 90
        2
176
     1
 90
        2
176
     1
 90
        1
176
     1
 90
        2
176
     1
 40
0.6
176
     1
 40
30.0
176
     1
 62
     7
420
 16777215
176
     1
 90
        1
176
     1
 90
        0
176
     1
 62
     7
176
     1
 62
   257
176
     1
 90
        1
176
     1
 90
        1
176
     1
 40
1.0
176
     1
 90
        0
176
     1
 62
   257
176
     1
 40
1.0
176
     1
 90
        1
176
     1
 90
        6
176
     1
 90
        2
176
     1
 62
     7
176
     1
 90
        5
176
     1
 90
        0
176
     1
 90
        0
176
     1
290
     0
176
     1
 90
       13
176
     1
 40
0.0
176
     1
 90
        0
176
     1
290
     0
176
     1
290
     1
176
     1
290
     1
176
     1
290
     0
176
     1
290
     0
176
     1
290
     0
176
     1
290
     0
176
     1
290
     0
176
     1
290
     0
176
     1
 90
       50
176
     1
 40
0.0
176
     1
 40
1.0
176
     1
 90
        0
176
     1
 62
    18
420
        0
176
     1
 90
       50
176
     1
 90
        3
176
     1
 62
     5
420
      255
176
     1
290
     0
176
     1
 90
       50
176
     1
 90
       50
176
     1
 90
       50
176
     1
290
     0
176
     1
 90
       50
176
     1
 62
   256
176
     0
 40
1.0
176
     0
 90
        2
176
     1
  1
strokes_ogs.tif
176
     1
290
     0
176
     1
 40
1.0
176
     1
 40
1.0
176
     1
  0
VISUALSTYLE
  5
31
102
{ACAD_REACTORS
330
2A
102
}
330
2A
100
AcDbVisualStyle
  2
Hidden
 70
     6
177
     3
291
     0
 70
    58
 90
        1
176
     1
 90
        2
176
     1
 90
        2
176
     1
 90
        0
176
     1
 40
0.6
176
     1
 40
30.0
176
     1
 62
     7
420
 16777215
176
     1
 90
        2
176
     1
 90
        2
176
     1
 62
     7
176
     1
 62
   257
176
     1
 90
        2
176
     1
 90
        1
176
     1
 40
40.0
176
     1
 90
        0
176
     1
 62
   257
176
     1
 40
1.0
176
     1
 90
        1
176
     1
 90
        6
176
     1
 90
        2
176
     1
 62
     7
176
     1
 90
        3
176
     1
 90
        0
176
     1
 90
        0
176
     1
290
     0
176
     1
 90
        1
176
     1
 40
0.0
176
     1
 90
        0
176
     1
290
     0
176
     1
290
     1
176
     1
290
     1
176
     1
290
     0
176
     1
290
     0
176
     1
290
     0
176
     1
290
     0
176
     1
290
     0
176
     1
290
     0
176
     1
 90
       50
176
     1
 40
0.0
176
     1
 40
1.0
176
     1
 90
        0
176
     1
 62
    18
420
        0
176
     1
 90
       50
176
     1
 90
        3
176
     1
 62
     5
420
      255
176
     1
290
     0
176
     1
 90
       50
176
     1
 90
       50
176
     1
 90
       50
176
     1
290
     0
176
     1
 90
       50
176
     1
 62
   256
176
     0
 40
1.0
176
     0
 90
        2
176
     1
  1
strokes_ogs.tif
176
     1
290
     0
176
     1
 40
1.0
176
     1
 40
1.0
176
     1
  0
VISUALSTYLE
  5
3B
102
{ACAD_REACTORS
330
2A
102
}
330
2A
100
AcDbVisualStyle
  2
JitterOff
 70
    20
177
     3
291
     1
 70
    58
 90
        2
176
     0
 90
        2
176
     0
 90
        0
176
     0
 90
        0
176
     0
 40
0.6
176
     0
 40
30.0
176
     0
 62
     7
420
 16777215
176
     0
 90
        1
176
     0
 90
        4
176
     0
 62
     7
176
     0
 62
   257
176
     0
 90
        1
176
     0
 90
        1
176
     0
 40
1.0
176
     0
 90
       10
176
     2
 62
     7
176
     0
 40
1.0
176
     0
 90
        1
176
     0
 90
        6
176
     0
 90
        2
176
     0
 62
     7
176
     0
 90
        5
176
     0
 90
        0
176
     0
 90
        0
176
     0
290
     0
176
     0
 90
        1
176
     0
 40
0.0
176
     0
 90
        0
176
     0
290
     0
176
     0
290
     1
176
     0
290
     1
176
     0
290
     0
176
     0
290
     0
176
     0
290
     0
176
     0
290
     0
176
     0
290
     0
176
     0
290
     0
176
     0
 90
       50
176
     0
 40
0.0
176
     0
 40
1.0
176
     0
 90
        0
176
     0
 62
    18
420
        0
176
     0
 90
       50
176
     0
 90
        3
176
     0
 62
     5
420
      255
176
     0
290
     0
176
     0
 90
       50
176
     0
 90
       50
176
     0
 90
       50
176
     0
290
     0
176
     0
 90
       50
176
     0
 62
   256
176
     0
 40
1.0
176
     0
 90
        2
176
     0
  1
strokes_ogs.tif
176
     0
290
     0
176
     0
 40
1.0
176
     0
 40
1.0
176
     0
  0
VISUALSTYLE
  5
38
102
{ACAD_REACTORS
330
2A
102
}
330
2A
100
AcDbVisualStyle
  2
Linepattern
 70
    14
177
     3
291
     1
 70
    58
 90
        2
176
     1
 90
        2
176
     1
 90
        0
176
     1
 90
        0
176
     1
 40
0.6
176
     1
 40
30.0
176
     1
 62
     7
420
 16777215
176
     1
 90
        1
176
     1
 90
        4
176
     1
 62
     7
176
     1
 62
   257
176
     1
 90
        7
176
     1
 90
        7
176
     1
 40
1.0
176
     1
 90
        8
176
     1
 62
     7
176
     1
 40
1.0
176
     1
 90
        1
176
     1
 90
        6
176
     1
 90
        2
176
     1
 62
     7
176
     1
 90
        5
176
     1
 90
        0
176
     1
 90
        0
176
     1
290
     0
176
     1
 90
        1
176
     1
 40
0.0
176
     1
 90
        0
176
     1
290
     0
176
     1
290
     1
176
     1
290
     1
176
     1
290
     0
176
     1
290
     0
176
     1
290
     0
176
     1
290
     0
176
     1
290
     0
176
     1
290
     0
176
     1
 90
       50
176
     1
 40
0.0
176
     1
 40
1.0
176
     1
 90
        0
176
     1
 62
    18
420
        0
176
     1
 90
       50
176
     1
 90
        3
176
     1
 62
     5
420
      255
176
     1
290
     0
176
     1
 90
       50
176
     1
 90
       50
176
     1
 90
       50
176
     1
290
     0
176
     1
 90
       50
176
     1
 62
   256
176
     0
 40
1.0
176
     0
 90
        2
176
     1
  1
strokes_ogs.tif
176
     1
290
     0
176
     1
 40
1.0
176
     1
 40
1.0
176
     1
  0
VISUALSTYLE
  5
3C
102
{ACAD_REACTORS
330
2A
102
}
330
2A
100
AcDbVisualStyle
  2
OverhangOff
 70
    21
177
     3
291
     1
 70
    58
 90
        2
176
     0
 90
        2
176
     0
 90
        0
176
     0
 90
        0
176
     0
 40
0.6
176
     0
 40
30.0
176
     0
 62
     7
420
 16777215
176
     0
 90
        1
176
     0
 90
        4
176
     0
 62
     7
176
     0
 62
   257
176
     0
 90
        1
176
     0
 90
        1
176
     0
 40
1.0
176
     0
 90
        9
176
     2
 62
     7
176
     0
 40
1.0
176
     0
 90
        1
176
     0
 90
        6
176
     0
 90
        2
176
     0
 62
     7
176
     0
 90
        5
176
     0
 90
        0
176
     0
 90
        0
176
     0
290
     0
176
     0
 90
        1
176
     0
 40
0.0
176
     0
 90
        0
176
     0
290
     0
176
     0
290
     1
176
     0
290
     1
176
     0
290
     0
176
     0
290
     0
176
     0
290
     0
176
     0
290
     0
176
     0
290
     0
176
     0
290
     0
176
     0
 90
       50
176
     0
 40
0.0
176
     0
 40
1.0
176
     0
 90
        0
176
     0
 62
    18
420
        0
176
     0
 90
       50
176
     0
 90
        3
176
     0
 62
     5
420
      255
176
     0
290
     0
176
     0
 90
       50
176
     0
 90
       50
176
     0
 90
       50
176
     0
290
     0
176
     0
 90
       50
176
     0
 62
   256
176
     0
 40
1.0
176
     0
 90
        2
176
     0
  1
strokes_ogs.tif
176
     0
290
     0
176
     0
 40
1.0
176
     0
 40
1.0
176
     0
  0
VISUALSTYLE
  5
33
102
{ACAD_REACTORS
330
2A
102
}
330
2A
100
AcDbVisualStyle
  2
Realistic
 70
     8
177
     3
291
     0
 70
    58
 90
        2
176
     1
 90
        3
176
     1
 90
        0
176
     1
 90
        2
176
     1
 40
0.6
176
     1
 40
30.0
176
     1
 62
     7
420
 16777215
176
     1
 90
        0
176
     1
 90
        0
176
     1
 62
     7
176
     1
 62
   257
176
     1
 90
        1
176
     1
 90
        1
176
     1
 40
1.0
176
     1
 90
        8
176
     1
 62
   257
176
     1
 40
1.0
176
     1
 90
        1
176
     1
 90
        6
176
     1
 90
        2
176
     1
 62
     7
176
     1
 90
        3
176
     1
 90
        0
176
     1
 90
        0
176
     1
290
     0
176
     1
 90
       13
176
     1
 40
0.0
176
     1
 90
        0
176
     1
290
     0
176
     1
290
     1
176
     1
290
     1
176
     1
290
     0
176
     1
290
     0
176
     1
290
     0
176
     1
290
     0
176
     1
290
     0
176
     1
290
     0
176
     1
 90
       50
176
     1
 40
0.0
176
     1
 40
1.0
176
     1
 90
        0
176
     1
 62
    18
420
        0
176
     1
 90
       50
176
     1
 90
        3
176
     1
 62
     5
420
      255
176
     1
290
     0
176
     1
 90
       50
176
     1
 90
       50
176
     1
 90
       50
176
     1
290
     0
176
     1
 90
       50
176
     1
 62
   256
176
     0
 40
1.0
176
     0
 90
        2
176
     1
  1
strokes_ogs.tif
176
     1
290
     0
176
     1
 40
1.0
176
     1
 40
1.0
176
     1
  0
VISUALSTYLE
  5
42
102
{ACAD_REACTORS
330
2A
102
}
330
2A
100
AcDbVisualStyle
  2
Shaded
 70
    27
177
     3
291
     0
 70
    58
 90
        2
176
     1
 90
        2
176
     1
 90
        1
176
     1
 90
        2
176
     1
 40
0.6
176
     1
 40
30.0
176
     1
 62
     7
420
 16777215
176
     1
 90
        0
176
     1
 90
        4
176
     1
 62
     7
176
     1
 62
   257
176
     1
 90
        1
176
     1
 90
        1
176
     1
 40
1.0
176
     1
 90
        8
176
     1
 62
   257
176
     1
 40
1.0
176
     1
 90
        1
176
     1
 90
        6
176
     1
 90
        2
176
     1
 62
     8
420
  7895160
176
     1
 90
        3
176
     1
 90
        0
176
     1
 90
        0
176
     1
290
     0
176
     1
 90
        5
176
     1
 40
0.0
176
     1
 90
        0
176
     1
290
     0
176
     1
290
     1
176
     1
290
     1
176
     1
290
     0
176
     1
290
     0
176
     1
290
     0
176
     1
290
     0
176
     1
290
     0
176
     1
290
     0
176
     1
 90
       50
176
     1
 40
0.0
176
     1
 40
1.0
176
     1
 90
        0
176
     1
 62
    18
420
        0
176
     1
 90
       50
176
     1
 90
        3
176
     1
 62
     5
420
      255
176
     1
290
     0
176
     1
 90
       50
176
     1
 90
       50
176
     1
 90
       50
176
     1
290
     0
176
     1
 90
       50
176
     1
 62
   256
176
     0
 40
1.0
176
     0
 90
        2
176
     1
  1
strokes_ogs.tif
176
     1
290
     0
176
     1
 40
1.0
176
     1
 40
1.0
176
     1
  0
VISUALSTYLE
  5
41
102
{ACAD_REACTORS
330
2A
102
}
330
2A
100
AcDbVisualStyle
  2
Shaded with edges
 70
    26
177
     3
291
     0
 70
    58
 90
        2
176
     1
 90
        2
176
     1
 90
        1
176
     1
 90
        2
176
     1
 40
0.6
176
     1
 40
30.0
176
     1
 62
     7
420
 16777215
176
     1
 90
        1
176
     1
 90
       10
176
     1
 62
     7
176
     1
 62
   257
176
     1
 90
        2
176
     1
 90
        1
176
     1
 40
1.0
176
     1
 90
        8
176
     1
 62
   257
176
     1
 40
1.0
176
     1
 90
        1
176
     1
 90
        6
176
     1
 90
        2
176
     1
 62
     7
176
     1
 90
        3
176
     1
 90
        0
176
     1
 90
        0
176
     1
290
     0
176
     1
 90
        5
176
     1
 40
0.0
176
     1
 90
        0
176
     1
290
     0
176
     1
290
     1
176
     1
290
     1
176
     1
290
     0
176
     1
290
     0
176
     1
290
     0
176
     1
290
     0
176
     1
290
     0
176
     1
290
     0
176
     1
 90
       50
176
     1
 40
0.0
176
     1
 40
1.0
176
     1
 90
        0
176
     1
 62
    18
420
        0
176
     1
 90
       50
176
     1
 90
        3
176
     1
 62
     5
420
      255
176
     1
290
     0
176
     1
 90
       50
176
     1
 90
       50
176
     1
 90
       50
176
     1
290
     0
176
     1
 90
       50
176
     1
 62
   256
176
     0
 40
1.0
176
     0
 90
        2
176
     1
  1
strokes_ogs.tif
176
     1
290
     0
176
     1
 40
1.0
176
     1
 40
1.0
176
     1
  0
VISUALSTYLE
  5
3E
102
{ACAD_REACTORS
330
2A
102
}
330
2A
100
AcDbVisualStyle
  2
Shades of Gray
 70
    23
177
     3
291
     0
 70
    58
 90
        2
176
     1
 90
        2
176
     1
 90
        3
176
     1
 90
        0
176
     1
 40
0.6
176
     1
 40
30.0
176
     1
 62
     7
420
 16777215
176
     1
 90
        2
176
     1
 90
        2
176
     1
 62
     7
176
     1
 62
     7
176
     1
 90
        1
176
     1
 90
        1
176
     1
 40
40.0
176
     1
 90
        8
176
     1
 62
     7
176
     1
 40
1.0
176
     1
 90
        1
176
     1
 90
        6
176
     1
 90
        2
176
     1
 62
     7
176
     1
 90
        3
176
     1
 90
        0
176
     1
 90
        0
176
     1
290
     0
176
     1
 90
        1
176
     1
 40
0.0
176
     1
 90
        0
176
     1
290
     0
176
     1
290
     1
176
     1
290
     1
176
     1
290
     0
176
     1
290
     0
176
     1
290
     0
176
     1
290
     0
176
     1
290
     0
176
     1
290
     0
176
     1
 90
       50
176
     1
 40
0.0
176
     1
 40
1.0
176
     1
 90
        0
176
     1
 62
    18
420
        0
176
     1
 90
       50
176
     1
 90
        3
176
     1
 62
     5
420
      255
176
     1
290
     0
176
     1
 90
       50
176
     1
 90
       50
176
     1
 90
       50
176
     1
290
     0
176
     1
 90
       50
176
     1
 62
   256
176
     0
 40
1.0
176
     0
 90
        2
176
     1
  1
strokes_ogs.tif
176
     1
290
     0
176
     1
 40
1.0
176
     1
 40
1.0
176
     1
  0
VISUALSTYLE
  5
3F
102
{ACAD_REACTORS
330
2A
102
}
330
2A
100
AcDbVisualStyle
  2
Sketchy
 70
    24
177
     3
291
     0
 70
    58
 90
        1
176
     1
 90
        2
176
     1
 90
        2
176
     1
 90
        0
176
     1
 40
0.6
176
     1
 40
30.0
176
     1
 62
     7
420
 16777215
176
     1
 90
        2
176
     1
 90
        2
176
     1
 62
     7
176
     1
 62
     7
176
     1
 90
        1
176
     1
 90
        1
176
     1
 40
40.0
176
     1
 90
       11
176
     1
 62
     7
176
     1
 40
1.0
176
     1
 90
        1
176
     1
 90
        6
176
     1
 90
        2
176
     1
 62
     7
176
     1
 90
        6
176
     1
 90
        0
176
     1
 90
        0
176
     1
290
     0
176
     1
 90
        1
176
     1
 40
0.0
176
     1
 90
        0
176
     1
290
     0
176
     1
290
     1
176
     1
290
     1
176
     1
290
     0
176
     1
290
     0
176
     1
290
     0
176
     1
290
     0
176
     1
290
     0
176
     1
290
     0
176
     1
 90
       50
176
     1
 40
0.0
176
     1
 40
1.0
176
     1
 90
        0
176
     1
 62
    18
420
        0
176
     1
 90
       50
176
     1
 90
        3
176
     1
 62
     5
420
      255
176
     1
290
     0
176
     1
 90
       50
176
     1
 90
       50
176
     1
 90
       50
176
     1
290
     0
176
     1
 90
       50
176
     1
 62
   256
176
     0
 40
1.0
176
     0
 90
        2
176
     1
  1
strokes_ogs.tif
176
     1
290
     0
176
     1
 40
1.0
176
     1
 40
1.0
176
     1
  0
VISUALSTYLE
  5
37
102
{ACAD_REACTORS
330
2A
102
}
330
2A
100
AcDbVisualStyle
  2
Thicken
 70
    13
177
     3
291
     1
 70
    58
 90
        2
176
     1
 90
        2
176
     1
 90
        0
176
     1
 90
        0
176
     1
 40
0.6
176
     1
 40
30.0
176
     1
 62
     7
420
 16777215
176
     1
 90
        1
176
     1
 90
        4
176
     1
 62
     7
176
     1
 62
   257
176
     1
 90
        1
176
     1
 90
        1
176
     1
 40
1.0
176
     1
 90
       12
176
     1
 62
     7
176
     1
 40
1.0
176
     1
 90
        1
176
     1
 90
        6
176
     1
 90
        2
176
     1
 62
     7
176
     1
 90
        5
176
     1
 90
        0
176
     1
 90
        0
176
     1
290
     0
176
     1
 90
        1
176
     1
 40
0.0
176
     1
 90
        0
176
     1
290
     0
176
     1
290
     1
176
     1
290
     1
176
     1
290
     0
176
     1
290
     0
176
     1
290
     0
176
     1
290
     0
176
     1
290
     0
176
     1
290
     0
176
     1
 90
       50
176
     1
 40
0.0
176
     1
 40
1.0
176
     1
 90
        0
176
     1
 62
    18
420
        0
176
     1
 90
       50
176
     1
 90
        3
176
     1
 62
     5
420
      255
176
     1
290
     0
176
     1
 90
       50
176
     1
 90
       50
176
     1
 90
       50
176
     1
290
     0
176
     1
 90
       50
176
     1
 62
   256
176
     0
 40
1.0
176
     0
 90
        2
176
     1
  1
strokes_ogs.tif
176
     1
290
     0
176
     1
 40
1.0
176
     1
 40
1.0
176
     1
  0
VISUALSTYLE
  5
30
102
{ACAD_REACTORS
330
2A
102
}
330
2A
100
AcDbVisualStyle
  2
Wireframe
 70
     5
177
     3
291
     0
 70
    58
 90
        0
176
     1
 90
        2
176
     1
 90
        0
176
     1
 90
        0
176
     1
 40
0.6
176
     1
 40
30.0
176
     1
 62
     7
420
 16777215
176
     1
 90
        1
176
     1
 90
        4
176
     1
 62
     7
176
     1
 62
   257
176
     1
 90
        1
176
     1
 90
        1
176
     1
 40
1.0
176
     1
 90
        0
176
     1
 62
   257
176
     1
 40
1.0
176
     1
 90
        1
176
     1
 90
        6
176
     1
 90
        2
176
     1
 62
     7
176
     1
 90
        3
176
     1
 90
        0
176
     1
 90
        0
176
     1
290
     0
176
     1
 90
        1
176
     1
 40
0.0
176
     1
 90
        0
176
     1
290
     0
176
     1
290
     1
176
     1
290
     1
176
     1
290
     0
176
     1
290
     0
176
     1
290
     0
176
     1
290
     0
176
     1
290
     0
176
     1
290
     0
176
     1
 90
       50
176
     1
 40
0.0
176
     1
 40
1.0
176
     1
 90
        0
176
     1
 62
    18
420
        0
176
     1
 90
       50
176
     1
 90
        3
176
     1
 62
     5
420
      255
176
     1
290
     0
176
     1
 90
       50
176
     1
 90
       50
176
     1
 90
       50
176
     1
290
     0
176
     1
 90
       50
176
     1
 62
   256
176
     0
 40
1.0
176
     0
 90
        2
176
     1
  1
strokes_ogs.tif
176
     1
290
     0
176
     1
 40
1.0
176
     1
 40
1.0
176
     1
  0
VISUALSTYLE
  5
40
102
{ACAD_REACTORS
330
2A
102
}
330
2A
100
AcDbVisualStyle
  2
X-Ray
 70
    25
177
     3
291
     0
 70
    58
 90
        2
176
     1
 90
        2
176
     1
 90
        1
176
     1
 90
        1
176
     1
 40
0.5
176
     1
 40
30.0
176
     1
 62
     7
420
 16777215
176
     1
 90
        1
176
     1
 90
        0
176
     1
 62
     7
176
     1
 62
   257
176
     1
 90
        1
176
     1
 90
        1
176
     1
 40
1.0
176
     1
 90
        8
176
     1
 62
     7
176
     1
 40
1.0
176
     1
 90
        1
176
     1
 90
        6
176
     1
 90
        2
176
     1
 62
     7
176
     1
 90
        3
176
     1
 90
        0
176
     1
 90
        0
176
     1
290
     0
176
     1
 90
       13
176
     1
 40
0.0
176
     1
 90
        0
176
     1
290
     0
176
     1
290
     1
176
     1
290
     1
176
     1
290
     0
176
     1
290
     0
176
     1
290
     0
176
     1
290
     0
176
     1
290
     0
176
     1
290
     0
176
     1
 90
       50
176
     1
 40
0.0
176
     1
 40
1.0
176
     1
 90
        0
176
     1
 62
    18
420
        0
176
     1
 90
       50
176
     1
 90
        3
176
     1
 62
     5
420
      255
176
     1
290
     0
176
     1
 90
       50
176
     1
 90
       50
176
     1
 90
       50
176
     1
290
     0
176
     1
 90
       50
176
     1
 62
   256
176
     0
 40
1.0
176
     0
 90
        2
176
     1
  1
strokes_ogs.tif
176
     1
290
     0
176
     1
 40
1.0
176
     1
 40
1.0
176
     1
  0
DICTIONARYVAR
  5
B7
102
{ACAD_REACTORS
330
B6
102
}
330
B6
100
DictionaryVariables
280
     0
  1
1:1
  0
DICTIONARYVAR
  5
BF
102
{ACAD_REACTORS
330
B6
102
}
330
B6
100
DictionaryVariables
280
     0
  1
3.500000
  0
DICTIONARYVAR
  5
C0
102
{ACAD_REACTORS
330
B6
102
}
330
B6
100
DictionaryVariables
280
     0
  1
acadiso.lin
  0
DICTIONARYVAR
  5
BC
102
{ACAD_REACTORS
330
B6
102
}
330
B6
100
DictionaryVariables
280
     0
  1
Standard
  0
DICTIONARYVAR
  5
BB
102
{ACAD_REACTORS
330
B6
102
}
330
B6
100
DictionaryVariables
280
     0
  1
Standard
  0
DICTIONARY
  5
B8
330
5A
100
AcDbDictionary
280
     1
281
     1
  3
ACAD_ROUNDTRIP_2008_TABLESTYLE_CELLSTYLEMAP
360
B9
  0
CELLSTYLEMAP
  5
B9
102
{ACAD_REACTORS
330
B8
102
}
330
B8
100
AcDbCellStyleMap
 90
        3
300
CELLSTYLE
  1
TABLEFORMAT_BEGIN
 90
        5
170
     1
 91
        0
 92
    32768
 62
   257
 93
        1
300
CONTENTFORMAT
  1
CONTENTFORMAT_BEGIN
 90
        0
 91
        0
 92
        4
 93
        0
300

 40
0.0
140
1.0
 94
        5
 62
     0
340
11
144
6.0
309
CONTENTFORMAT_END
171
     1
301
MARGIN
  1
CELLMARGIN_BEGIN
 40
1.5
 40
1.5
 40
1.5
 40
1.5
 40
1.5
 40
1.5
309
CELLMARGIN_END
 94
        6
 95
        1
302
GRIDFORMAT
  1
GRIDFORMAT_BEGIN
 90
        0
 91
        1
 62
     0
 92
       -2
340
14
 93
        0
 40
0.045
309
GRIDFORMAT_END
 95
        2
302
GRIDFORMAT
  1
GRIDFORMAT_BEGIN
 90
        0
 91
        1
 62
     0
 92
       -2
340
14
 93
        0
 40
0.045
309
GRIDFORMAT_END
 95
        4
302
GRIDFORMAT
  1
GRIDFORMAT_BEGIN
 90
        0
 91
        1
 62
     0
 92
       -2
340
14
 93
        0
 40
0.045
309
GRIDFORMAT_END
 95
        8
302
GRIDFORMAT
  1
GRIDFORMAT_BEGIN
 90
        0
 91
        1
 62
     0
 92
       -2
340
14
 93
        0
 40
0.045
309
GRIDFORMAT_END
 95
       16
302
GRIDFORMAT
  1
GRIDFORMAT_BEGIN
 90
        0
 91
        1
 62
     0
 92
       -2
340
14
 93
        0
 40
0.045
309
GRIDFORMAT_END
 95
       32
302
GRIDFORMAT
  1
GRIDFORMAT_BEGIN
 90
        0
 91
        1
 62
     0
 92
       -2
340
14
 93
        0
 40
0.045
309
GRIDFORMAT_END
309
TABLEFORMAT_END
  1
CELLSTYLE_BEGIN
 90
        1
 91
        1
300
_TITLE
309
CELLSTYLE_END
300
CELLSTYLE
  1
TABLEFORMAT_BEGIN
 90
        5
170
     1
 91
        0
 92
        0
 62
   257
 93
        1
300
CONTENTFORMAT
  1
CONTENTFORMAT_BEGIN
 90
        0
 91
        0
 92
        4
 93
        0
300

 40
0.0
140
1.0
 94
        5
 62
     0
340
11
144
4.5
309
CONTENTFORMAT_END
171
     1
301
MARGIN
  1
CELLMARGIN_BEGIN
 40
1.5
 40
1.5
 40
1.5
 40
1.5
 40
1.5
 40
1.5
309
CELLMARGIN_END
 94
        6
 95
        1
302
GRIDFORMAT
  1
GRIDFORMAT_BEGIN
 90
        0
 91
        1
 62
     0
 92
       -2
340
14
 93
        0
 40
0.045
309
GRIDFORMAT_END
 95
        2
302
GRIDFORMAT
  1
GRIDFORMAT_BEGIN
 90
        0
 91
        1
 62
     0
 92
       -2
340
14
 93
        0
 40
0.045
309
GRIDFORMAT_END
 95
        4
302
GRIDFORMAT
  1
GRIDFORMAT_BEGIN
 90
        0
 91
        1
 62
     0
 92
       -2
340
14
 93
        0
 40
0.045
309
GRIDFORMAT_END
 95
        8
302
GRIDFORMAT
  1
GRIDFORMAT_BEGIN
 90
        0
 91
        1
 62
     0
 92
       -2
340
14
 93
        0
 40
0.045
309
GRIDFORMAT_END
 95
       16
302
GRIDFORMAT
  1
GRIDFORMAT_BEGIN
 90
        0
 91
        1
 62
     0
 92
       -2
340
14
 93
        0
 40
0.045
309
GRIDFORMAT_END
 95
       32
302
GRIDFORMAT
  1
GRIDFORMAT_BEGIN
 90
        0
 91
        1
 62
     0
 92
       -2
340
14
 93
        0
 40
0.045
309
GRIDFORMAT_END
309
TABLEFORMAT_END
  1
CELLSTYLE_BEGIN
 90
        2
 91
        1
300
_HEADER
309
CELLSTYLE_END
300
CELLSTYLE
  1
TABLEFORMAT_BEGIN
 90
        5
170
     1
 91
        0
 92
        0
 62
   257
 93
        1
300
CONTENTFORMAT
  1
CONTENTFORMAT_BEGIN
 90
        0
 91
        0
 92
        4
 93
        0
300

 40
0.0
140
1.0
 94
        2
 62
     0
340
11
144
4.5
309
CONTENTFORMAT_END
171
     1
301
MARGIN
  1
CELLMARGIN_BEGIN
 40
1.5
 40
1.5
 40
1.5
 40
1.5
 40
1.5
 40
1.5
309
CELLMARGIN_END
 94
        6
 95
        1
302
GRIDFORMAT
  1
GRIDFORMAT_BEGIN
 90
        0
 91
        1
 62
     0
 92
       -2
340
14
 93
        0
 40
0.045
309
GRIDFORMAT_END
 95
        2
302
GRIDFORMAT
  1
GRIDFORMAT_BEGIN
 90
        0
 91
        1
 62
     0
 92
       -2
340
14
 93
        0
 40
0.045
309
GRIDFORMAT_END
 95
        4
302
GRIDFORMAT
  1
GRIDFORMAT_BEGIN
 90
        0
 91
        1
 62
     0
 92
       -2
340
14
 93
        0
 40
0.045
309
GRIDFORMAT_END
 95
        8
302
GRIDFORMAT
  1
GRIDFORMAT_BEGIN
 90
        0
 91
        1
 62
     0
 92
       -2
340
14
 93
        0
 40
0.045
309
GRIDFORMAT_END
 95
       16
302
GRIDFORMAT
  1
GRIDFORMAT_BEGIN
 90
        0
 91
        1
 62
     0
 92
       -2
340
14
 93
        0
 40
0.045
309
GRIDFORMAT_END
 95
       32
302
GRIDFORMAT
  1
GRIDFORMAT_BEGIN
 90
        0
 91
        1
 62
     0
 92
       -2
340
14
 93
        0
 40
0.045
309
GRIDFORMAT_END
309
TABLEFORMAT_END
  1
CELLSTYLE_BEGIN
 90
        3
 91
        2
300
_DATA
309
CELLSTYLE_END
  0
ENDSEC
  0
EOF
